<svg enable-background="new 0 0 76.7 33.9" viewBox="0 0 76.7 33.9" xmlns="http://www.w3.org/2000/svg"><g fill="#fff"><path d="m65.6 15c3.1 0 5.5-2.5 5.5-5.5 0-3.1-2.5-5.5-5.6-5.5h-7.9v11zm-7.9 15h9.6c3.1 0 5.6-2.5 5.6-5.5 0-3.1-2.5-5.5-5.6-5.5h-9.6zm9.6 3.9h-13.5v-33.9h11.8c5.2 0 9.5 4.2 9.5 9.4 0 2.7-1.1 5.1-3 6.9 2.8 1.6 4.6 4.7 4.6 8.1.1 5.3-4.2 9.5-9.4 9.5"/><path d="m38.7 15c3.1 0 5.6-2.5 5.6-5.6s-2.5-5.6-5.6-5.6h-7.9v11.1zm-7.9 15.1h9.6c3.1 0 5.6-2.5 5.6-5.6s-2.5-5.6-5.6-5.6h-9.6zm9.6 3.9h-13.5v-34h11.9c5.2 0 9.5 4.3 9.5 9.5 0 2.7-1.1 5.2-3 6.9 2.8 1.7 4.6 4.7 4.6 8.2 0 5.1-4.2 9.4-9.5 9.4"/><path d="m6.2 0h-2.3l1.2 3.9h2.2z"/><path d="m8.2 15 1.1 3.9h2.2l-1.1-3.9z"/><path d="m11.3 30.1h-7.4v-11.2h4.3l-1.1-3.9h-3.2v-11.1l-1.1-3.9h-2.8v34h12.4z"/><path d="m18.4 16.3c1.8-1.7 3-4.2 3-6.9 0-5.2-4.3-9.5-9.5-9.5h-1.2l1.1 3.9h.1c3.1 0 5.6 2.5 5.6 5.6s-2.5 5.6-5.5 5.6h-.3l1.1 3.9h.9c3.1 0 5.6 2.5 5.6 5.6s-2.5 5.6-5.6 5.6h-1.1l1.1 3.9c5.2 0 9.5-4.3 9.5-9.5-.2-3.5-2-6.5-4.8-8.2"/><path d="m7.3 0 1.1 3.9h2.2l-1.1-3.9z"/></g></svg>