<svg viewBox="0 0 288 451.14" xmlns="http://www.w3.org/2000/svg"><g fill="#cc092f"><path d="m150.95 358.47h8.66v40.25h-8.66z"/><path d="m117.6 358.47h8.66v14.8h-8.66z"/><path d="m204.85 106.05a3.79 3.79 0 1 0 -3.79-3.79 3.79 3.79 0 0 0 3.79 3.79z"/><path d="m0 0v451.14h288v-451.14zm69.09 363.27h-9.5v-4.8h-8.66v40.25h8.66v-4.06h9.5v13.86h-27.66v-59.97h27.66zm32.6 45.22h-9.5v-25.43h-8.42v25.43h-9.5v-25.43h-3.19v-9.92h3.19v-24.59h9.5v24.59h8.42v-24.59h9.5zm27.95 0-8.5-25.3h-3.46v25.29h-9.5v-25.42h-3.18v-9.92h3.1v-24.59h27.66v27.21l-5.7 6.37 7.05 20.74v5.62zm39.47 0h-27.66v-59.94h27.66zm-19.46-148.82-16.14-3-8.45 1.63.91 3.56 7.54-1.49 11.68 2.38-4.33 20.82-12.52 20.93h36.82v17.6h-3v-9.89h-3.82v9.89h-2.71v-9.89h-3.82v9.89h-80.66l-3.35-45.5 9.11-37 19.41-21.31 35.81 12.32 14.68-15.3-3.27-1.89-12.31 13.28-8.8-3.06 6.69-9-3.68-1.67-7.52 8.52-14.23-4.51 11.71-10.37-3.68-2.34-13 10.71-12.72-9.75 16.83-9.08-3.11-2.64-17.07 8-12-17.07 18.35-3.64-2.34-3.69-18.78 2.69-8.37-31.46 23.43 6.36-1.34-5.36-22.42-7-9-33.13 25.77 7 1.34-3.68-26.44-8.37 13.45-56.69 19.31 34.93 19.08 22.76 7.36 39.16 6 5.86 18.73 2 22.51 3 12.26 9-.9 13.87-8.3 3.06 2.72 3.58 9.24-3.14 2.47-18.81-15.49-11.74-23.9-3.25-17.64-2.21-.34-7.37 7.87 3.69 1.36-3.59-9.4-3.94.93-8.75 10.83 6.75 1.63-3.88-11.34-7.84 3.35-11 12.21 10.54 1.93-3.4-13.18-12.2 6.86-12.55 13.89 13.89 2.51-3.18-13.72-14.56 12.72-12.88 13.72 16.4 3.85-2.18-11.88-17.57 26.09-6.5 5.92 5.32-3 8.74 20.44-1.48 13.44 13.78v5.94l5.68 10.63.71 6.19 2 5.69-2.12 2.38-10.48 4.94-5.3-7.64-5.46 3.36 7.7 6.6-6.12 4-4.66-6-7.36-3-6.52 2.32-7.18 12.94 9.44 21.13 32.72 8.08-.25 22.78-9 23.57 3.45 88.81h20.31v17.6h-2.78v-7.63h-3.82v7.63h-2.72v-7.63h-3.82v7.63h-22.52l-11.74-62.64-9.27-9.79zm62.48 148.82h-9.5v-27.33l-5.86 14.08h-7l-6-14.32v27.59h-9.49v-59.96h9.49v7.25l9.48 22.4 9.37-21.73v-7.92h9.5zm34.44-45.22h-9.5v-4.8h-8.75v14.67h15.39v9.92h-15.39v15.66h8.68v-4.06h9.5v13.83h-27.65v-25.4h-3.19v-9.92h3.19v-24.62h27.75z"/></g></svg>