<svg enable-background="new 0 0 149 29.9" viewBox="0 0 149 29.9" xmlns="http://www.w3.org/2000/svg"><path d="m1.2 1.2h72.5v27.6h-72.5z" fill="#e30613"/><path d="m74.8 0h-74.8v29.9h74.8zm-73.6 28.8v-27.6h72.5v27.6z" fill="#1d1d1b"/><path d="m42.8 25.5v-6.7h-.5v-.7h-5.7v-13h-.5v-.7h-7.8v20.6h.7v.5z" fill="#1d1d1b"/><path d="m52.3 25.5v-20.4h-.5v-.7h-7.8v20.6h.7v.5z" fill="#1d1d1b"/><path d="m63.2 25.5v-7.1h5.4v-5.4s-.2 0-.5 0v-.7s-3.5 0-4.9 0c0-.5 0-1.1 0-1.2h6.2v-6h-.5v-.7h-14v20.6h.7v.5z" fill="#1d1d1b"/><path d="m20 25.9c2.9 0 6-1.4 7.6-3.4l-3.7-5.7c-.1.2-.2.3-.4.4l-.5-.8c-.7 1-1.8 1.7-3 1.7-.3 0-.7 0-1-.1-1.2-.5-2-1.5-2-2.9 0-1.7 1.2-3.4 3.3-3.4 1 0 2.2.5 2.8 1.3l3.5-5.6c-.1-.1-.3-.2-.4-.3l.3-.4c-1.9-1.7-4.4-2.6-7-2.6-5.9 0-10.6 4.8-10.6 10.6 0 3.5 1.7 6.6 4.3 8.5 1.7 1.7 4.1 2.7 6.8 2.7z" fill="#1d1d1b"/><path d="m55.3 4.8v19.8h6.9v-7.1h5.5v-4.8h-5.5v-2.6h6.2v-5.3z" fill="#fff"/><path d="m44.5 4.8h6.9v19.7h-6.9z" fill="#fff"/><path d="m28.8 4.8v19.8h13.1v-6h-6.3v-13.8z" fill="#fff"/><path d="m25.8 6.8c-1.8-1.5-4.1-2.3-6.4-2.3-5.6 0-10.2 4.6-10.2 10.2s4.6 10.2 10.2 10.2c2.5 0 5-.9 6.9-2.7-.3-.5-2.4-3.7-3.1-4.8l-.2-.2c-.8.9-1.9 1.4-3 1.4-2.2 0-4-1.8-4-4s1.8-4 4-4c1 0 2 .4 2.7 1.1.2-.3 1-1.5 1.7-2.6.6-1.1 1.2-2 1.4-2.3z" fill="#fff"/><path d="m3.3 15 3.4-3.4v6.8z" fill="#1d1d1b"/><path d="m6.2 13-2.1 2 2.1 2z" fill="#fff"/><g fill="#1d1d1b"><path d="m77.6 29.6c-.2.2-.4.3-.7.3s-.5-.1-.7-.3-.3-.4-.3-.7.1-.6.3-.8.4-.3.7-.3.5.1.7.3.3.4.3.7c.1.4 0 .6-.3.8zm-1.3-1.3c-.2.2-.3.4-.3.6s.1.4.3.6.4.2.6.2.4-.1.6-.3.3-.4.3-.6-.1-.4-.3-.6-.4-.3-.6-.3c-.2.1-.4.2-.6.4zm.2 1.2v-1.1h.3.2c.1 0 .2 0 .2.1.1.1.2.1.2.3 0 .1 0 .2-.1.2s-.1.1-.2.1c.1 0 .1 0 .2.1s.1.1.1.3v.1h-.3s0-.1 0-.2 0-.1 0-.1 0-.1-.1-.1h-.1-.1-.1v.4zm.5-1s-.1 0-.2 0h-.1v.3h.1.2l.1-.1c0-.1 0-.1-.1-.2z"/><path d="m90.8 10.4 1.9.5c.1 0 .1.1.1.2-.6 1.4-2 2.6-3.9 2.6-2.7 0-4.4-2-4.4-4.4 0-2.6 1.9-4.4 4.4-4.4 2.1 0 3.3 1.1 3.9 2.4.1.1 0 .2 0 .2l-1.9.7c-.1 0-.1 0-.1-.1-.4-.8-1-1.1-1.8-1.1-1.2 0-2 1-2 2.3 0 1.6 1 2.3 2.1 2.3.8 0 1.5-.4 1.8-1-.2-.2-.2-.2-.1-.2z"/><path d="m99.5 13.4c0 .1 0 .1-.1.1-.8 0-4.5 0-5.3 0-.1 0-.1 0-.1-.1 0-1.5 0-2.8 0-4.1 0-1.4 0-2.6 0-4.1 0-.2 0-.2.1-.2h2c.1 0 .1 0 .1.1v6.4l3.1-.1c.1 0 .1 0 .1.1.1.5.1.9.1 1.9z"/><path d="m103 9.2v4.1c0 .1 0 .1-.1.1-.8 0-1.3 0-2.1 0-.1 0-.1 0-.1-.1 0-1.5 0-2.8 0-4.1 0-1.4 0-2.6 0-4.1 0-.1 0-.1.1-.1h2.1c.1 0 .1 0 .1.1z"/><path d="m105 13.5c-.1 0-.1 0-.1-.2 0-2.4 0-5.4 0-8.1 0-.1 0-.2.1-.2h5.5c.1 0 .1 0 .1.1v1.7c0 .1 0 .1-.1.1h-3.3v1.7h3c.1 0 .2 0 .2.1v1.7c0 .1-.1.1-.2.1h-3v2.8c0 .1 0 .2-.1.2z"/><path d="m118.9 13.5c-1.8 0-2.9 0-4.7 0-.1 0-.1 0-.1-.2 0-3.2 0-5 0-8.2 0-.1 0-.1.2-.1h4.4c1.5 0 2.5.8 2.5 2.2 0 .9-.5 1.6-1.5 1.9 1.1.1 1.7 1.1 1.7 2.1-.1 1.3-1 2.3-2.5 2.3zm-.9-5.2c.5 0 .8-.3.8-.8s-.3-.8-.8-.8h-1.7v1.6zm.1 3.4c.5 0 .9-.3.9-.9 0-.5-.4-.9-.9-.9h-1.8v1.8z"/><path d="m124.4 12.3c-.2.4-.3.8-.4 1.1 0 .1-.1.1-.2.1-.8 0-1.2 0-2.1 0-.1 0-.1 0-.1-.2 1.3-2.8 3.1-6.4 4.2-8.6h.3c1.2 2.3 2.9 5.8 4.3 8.6.1.2.1.2 0 .2-.6 0-1.4 0-2.3 0-.1 0-.1 0-.2-.1-.2-.3-.3-.8-.5-1.1zm2.4-1.7-.9-1.9-.8 1.9z"/><path d="m135.4 5c1.9 0 2.9 1.3 2.9 2.9 0 1.1-.4 2-1.2 2.3.3.5 1 1.8 1.8 2.9.1.2.1.3 0 .3h-2.2c-.1 0-.1 0-.3-.2-.4-.8-1.3-2.2-1.3-2.2h-1.4v2.4c0 .1 0 .1-.1.1-.8 0-1.3 0-2 0-.1 0-.1 0-.1-.1 0-1.5 0-2.8 0-4.1 0-1.4 0-2.7 0-4.2 0-.1.1-.1.1-.1zm-.5 4.3c.7 0 1-.5 1-1.2s-.3-1.2-1.1-1.2h-1.2v2.4z"/><path d="m146.2 12.9c-.4.4-1.2.8-2.2.8-1.6 0-2.7-.9-2.7-2.4 0-1.6.9-2.4 2.1-2.8-.1-.4-.4-1-.4-1.5 0-1.5 1.2-2.2 2.6-2.2.9 0 1.5.1 2.3.9.1.1.1.2 0 .3-.3.3-.6.7-.8 1-.1.1-.2.1-.3 0-.2-.3-.5-.5-.9-.5-.5 0-.7.3-.7.6 0 .2.1.6.6 1.4l.9 1.5s.6-1 .7-1.3c0-.1.6.1 1.2.5.2.1.2.1.1.3-.2.6-.7 1.4-1.1 1.9 0 0 .5.7 1.2 1.8.1.2.2.3 0 .3-.8 0-1.1 0-2.1 0-.1 0-.2-.2-.5-.6zm-2.8-1.9c0 .7.4 1 1 1 .2 0 .9-.2 1-.3l-1.1-1.9c-.6.2-.9.7-.9 1.2z"/><path d="m91 21.6 1.9.5c.1 0 .1.1.1.2-.6 1.4-2 2.7-4 2.7-2.7 0-4.6-2.1-4.6-4.5 0-2.6 2-4.6 4.5-4.6 2.1 0 3.4 1.1 4 2.5.1.2 0 .2 0 .2l-1.9.6c-.1 0-.1 0-.1-.1-.4-.8-1-1.2-1.9-1.2-1.3 0-2.1 1-2.1 2.4 0 1.6 1.1 2.3 2.1 2.3.9 0 1.5-.4 1.8-1.1.1.1.1 0 .2.1z"/><path d="m98.4 15.8c2.6 0 4.6 2 4.6 4.6 0 2.5-2 4.6-4.6 4.6s-4.6-2-4.6-4.6c0-2.5 2-4.6 4.6-4.6zm-2.2 4.6c0 1.3.8 2.4 2.2 2.4s2.2-1 2.2-2.4c0-1.3-.8-2.4-2.2-2.4s-2.2 1.1-2.2 2.4z"/><path d="m113.2 24.5c0 .1 0 .2-.1.2-.7 0-1.3 0-2.1 0-.1 0-.1 0-.1-.1l-.1-3.7s-1.5 1.5-2 2c-.1.1-.1.1-.2 0-.5-.5-2-2-2-2l-.1 3.7c0 .2 0 .2-.1.2-.8 0-1.2 0-1.9 0-.1 0-.1 0-.1-.1 0-2.8.1-6.1.3-8.7 0-.2.1-.2.2-.1 1.1 1.1 3.3 3.3 3.9 4 .5-.6 2.7-2.9 3.9-4.1.1-.1.2-.1.2.1.2 3.3.2 5.5.3 8.6z"/><path d="m117.5 22.5v2.1c0 .1 0 .1-.1.1-.8 0-1.3 0-2.1 0-.1 0-.1 0-.1-.1 0-1.6 0-2.9 0-4.2 0-1.4 0-2.7 0-4.3 0-.1.1-.1.1-.1h3.9c1.9 0 3.1 1.4 3.1 3.3 0 2.1-1.2 2.9-2.9 3.1-.4.1-1.9.1-1.9.1zm0-4.6v2.7h1.1c.9 0 1.3-.6 1.3-1.3 0-.9-.5-1.4-1.3-1.4z"/><path d="m124.9 23.5c-.2.4-.3.8-.5 1.1 0 .1-.1.1-.2.1-.8 0-1.3 0-2.1 0-.1 0-.1-.1-.1-.2 1.3-2.8 3.2-6.6 4.4-8.8h.3c1.2 2.4 3 6 4.4 8.8.1.2.1.2-.1.2-.6 0-1.4 0-2.4 0-.1 0-.1 0-.2-.1-.2-.3-.3-.8-.5-1.1zm2.5-1.7-.9-2-.9 2z"/><path d="m132.2 15.9c0-.1.1-.1.1-.1 1.8 1.3 5 4.2 5 4.2v-3.9c0-.1 0-.2.1-.2h2c.1 0 .1 0 .1.2.1 2.5 0 6 0 8.6 0 .2 0 .2-.2.1-1.9-1.5-5-4.2-5-4.2v3.9c0 .1 0 .1-.1.1-.8 0-1.2 0-1.9 0-.1 0-.1-.1-.1-.1 0-3.2 0-5.2 0-8.6z"/><path d="m146.1 21.9v2.6c0 .2 0 .2-.1.2-.8 0-1.4 0-2.1 0-.1 0-.1 0-.1-.2v-2.5s-1.9-3.3-3.1-5.8c-.1-.2-.1-.2.1-.2h2.2c.2 0 .3.1.3.2.5 1.1 1.7 3.7 1.7 3.7s1.2-2.6 1.6-3.7c.1-.2.1-.2.3-.2h1.9c.3 0 .3 0 .2.3-1.2 2.5-2.9 5.6-2.9 5.6z"/></g></svg>