<svg enable-background="new 0 0 400 65" viewBox="0 0 400 65" xmlns="http://www.w3.org/2000/svg"><path d="m70.5999985 13.3000002c-3.0999985-8.8000002-11.7999993-11.3000002-23.2999993-11.3000002h-34.2999992l-13 61h33.4000015c17.4000015 0 32.2000046-7.2000008 37.2000046-30.4000015 1-4.8999996 1.4000015-9.1000004 1.3000031-12.7000008h18l-9.0999985 43h23.4000015l9.1999969-43h20.6000061l3.8000031-18h-64.8000183zm-24.3999977 18.6999998c-2.1000023 10.2000008-5.2000008 15.7999992-13.7000008 15.7999992h-5.7999992l6.7000008-31.7000008h5.7999992c8.2999992.000002 9.2999992 5.4000016 7 15.9000016zm141.1999931-31.1c5.1000061 0 10.1000061 1 14.6999969 2.9000002l-2.3999939 7.8000002c-2.8999939-1.6999998-6.5-3-11.1000061-3-5.8000031 0-12.1000061 2.3000002-12.1000061 9.5 0 10.1999989 20.8000031 10.3000011 20.8000031 26.3000011 0 9.2000008-6.3999939 19.5999985-21.1000061 19.5999985-7.1000061 0-12.1999969-1.5999985-17-3.5l2.8000031-8c3.6000061 2.2999992 8.6000061 3.7999992 12.8999939 3.7999992 9.3000031 0 13.1999969-5.7999992 13.1999969-10.7999992 0-12.4000015-20.8000031-10.2000008-20.8000031-27.2000008-.0999756-11.0999994 10.1000214-17.3999992 20.1000214-17.3999992zm108.6000061 1.1-31.8999939 61h-11.3999939l-1.3000031-52.7999992h-.1999969l-24.2000122 52.7999992h-11.5l-5-61h8.6999969l3.3000031 52.2000008h.1999969l24.3000031-52.2000008h11.5l1.6000061 52.2999992h.2000122l26.3999939-52.2999992zm8.2999878 0h8.7999878l-13.1000061 61h-8.7999878zm37.5-1.1c5.1000061 0 10.1000061 1 14.7000122 2.9000001l-2.3999939 7.8000002c-2.8999939-1.6999998-6.5-3-11.1000061-3-5.7999878 0-12.1000061 2.3000002-12.1000061 9.5 0 10.1999989 20.7999878 10.3000011 20.7999878 26.3000011 0 9.2000009-6.3999939 19.5999986-21.1000061 19.5999986-7.1000061 0-12.2000122-1.5999985-17-3.5l2.7999878-8c3.6000061 2.2999992 8.6000061 3.7999992 12.8999939 3.7999992 9.2999878 0 13.2000122-5.7999992 13.2000122-10.7999992 0-12.4000015-20.7999878-10.2000008-20.7999878-27.2000008-.0999756-11.0999994 10.0000305-17.3999992 20.1000061-17.3999992zm32.6000061 17.3000008c0 10.2000008 20.7999878 10.2999992 20.7999878 26.2999992 0 9.2000008-6.3999939 19.5999985-21.1000061 19.5999985-7.1000061 0-12.2000122-1.5999985-17-3.5l2.7999878-8c3.6000061 2.2999992 8.6000061 3.7999992 12.8999939 3.7999992 9.2999878 0 13.2000122-5.7999992 13.2000122-10.7999992 0-12.4000015-20.7999878-10.2000008-20.7999878-27.2000008 0-11.1000004 10.1000061-17.3999996 20.2000122-17.3999996 5.1000061 0 10.1000061 1 14.7000122 2.9000001l-2.3999939 7.8000007c-2.8999939-1.6999998-6.5-3-11.1000061-3-5.8999939-.0999985-12.2000122 2.2000007-12.2000122 9.5000019z" fill="#fff"/></svg>