<svg enable-background="new 0 0 136 22" viewBox="0 0 136 22" xmlns="http://www.w3.org/2000/svg"><path d="m133.7 14c-.2 2.3-2.1 4-4.3 4h-15.8c-2.2 0-4.1-1.8-4.3-4-.4-3.3-.4-6.6 0-9.9.2-2.3 2.1-4 4.3-4h15.8c2.2 0 4.1 1.8 4.3 4 .4 3.2.4 6.6 0 9.9zm-5.7-8.7c0-1.8-1.5-3.3-3.2-3.3h-6.5c-1.8 0-3.2 1.5-3.2 3.3v7.4c0 1.8 1.5 3.3 3.2 3.3h6.5c1.8 0 3.2-1.5 3.2-3.3zm-25.9 3.4c-.9.2-1.4 1-1 1.9.9 2.3 2.3 4.6 3.9 6.3.4.4 0 1.1-.5 1.1h-5.5c-2.3-2.2-4-4.8-5.2-7.9-.3-.8.1-1.6 1.1-1.8 1.5-.3 3-.5 4.5-.8.9-.1 1.6-.7 1.6-1.7v-.5c0-1.8-1.4-3.3-3.2-3.3h-7c-1.5 0-2.6 1.2-2.6 2.7v10.5c0 1.5-1.2 2.7-2.6 2.7h-2.9c-.3 0-.6-.3-.6-.6v-16.7c0-.2.1-.3.2-.4s.1-.2.3-.2h19.9c2.3 0 4.1 1.8 4.3 4 .1.8.1 1.5.2 2.3 0 .9-.7 1.5-1.6 1.7-1.1.2-2.3.5-3.3.7zm-23.7 9.3h-2.8c-1.4 0-2.6-1.2-2.6-2.7v-14.7c0-.2.1-.3.2-.4s.2-.2.4-.2h2.8c1.4 0 2.6 1.2 2.6 2.7v14.7c0 .3-.3.6-.6.6zm-16.1-5.2c-1.3-2.4.4-4.6 2-5.8 3 2.5 5.1 5.5 6.5 9.2.3.8-.1 1.8-1.1 1.8h-19.1c-2.2 0-4.1-1.8-4.3-4-.4-3.3-.4-6.6 0-9.9.2-2.3 2.1-4 4.3-4h20.4v.4c0 .8-.7 1.5-1.6 1.5h-14.1c-1.8 0-3.2 1.5-3.2 3.3v7.3c0 1.8 1.4 3.3 3.2 3.3h6.6c.9 0 1.4-1 1-1.9-.2-.3-.4-.7-.6-1.2zm-45.4 5.2c-6 0-11.7-2-16.4-5.7-.6-.5-.7-1.4 0-1.9 2.5-1.9 4.8-3.5 8.1-5l.3.6c.6 1.2.2 2.4-.6 3-.3.2-.5.3-.9.6-.9.7-.9 1.9.1 2.6 2.1 1.5 5.5 3 9.4 3 6.5 0 12.4-3.9 15-9.9.4-1-.2-2-1.3-2.3-2.6-.6-7.5-.6-10.1 0-1.1.3-1.7 1.3-1.3 2.3.2.5.4.9.6 1.3 1.6 2.9-.6 5.8-2.7 7.2-3.7-3-6.2-6.5-8-11.1-.1-.6.3-1.4 1.1-1.6 2.9-.6 9.8-1.1 15.4-1.1 4.8 0 11.5.5 14.4 1.1.9.2 1.2 1.1.9 1.7-4.3 8.9-13.2 15.2-24 15.2z" fill="#fff" transform="translate(1 3)"/></svg>