<svg enable-background="new 0 0 200 27.4" viewBox="0 0 200 27.4" xmlns="http://www.w3.org/2000/svg"><g fill="#fff"><path d="m129 7.5c-.3-.6-1.1-.7-3.3-.7h-19.6l-7.3 13.7h20.4c3 0 4.5-1.9 5.3-3.6 0 0 4.1-7.8 4.1-7.9.1-.3.3-.7.3-.9.2-.1.2-.3.1-.6zm-11.2 9.2c-.2.2-.9.2-.9.2h-9.7l3.4-6.3h8.8c1.2 0 1.4.1 1.5.3 0 .1 0 .2-.1.6 0 0-1.7 3.2-2.5 4.7-.2.3-.3.4-.5.5z"/><path d="m64.1 10.6 2-3.8h-20.9c-3.7 0-4.2 1-4.7 1.9-1.8 3.3-5.2 9.8-5.2 9.9-.1.2-.2.6-.2.8 0 .1.1.3.1.4.2.3.8.7 2.5.7h21.1l1.9-3.6h-18.1l.7-1.3h14.2l2-3.8h-14.2l.6-1.2z"/><path d="m103.6 6.9h-7.5l-7.3 13.7h7.5z"/><path d="m155.9 7.5c-.3-.4-.9-.7-2.6-.7h-18.4c-2.8 0-3.3.9-3.8 1.8l-6.3 11.9h7l2.6-4.9h11.3l-2.6 4.9h6.7l6.3-11.9s.1-.3.1-.7c-.2 0-.2-.2-.3-.4zm-19.2 3.6s.2-.5.9-.5h9.7c.6 0 .6.3.6.5 0 .1-.8 1.5-.8 1.5h-11.3z"/><path d="m92.5 7.5c-.2-.3-.8-.6-2.5-.6h-22l-7.3 13.7h6.7l5.3-9.9h11.6s.5 0 .3.4c-.1.2-.2.5-.3.6-.1.2-.1.3-.6.3-.4 0-8.1 0-8.1 0l-2.1 3.9 6.4 4.8h8.7l-6.3-4.9h3.2c2.5-.1 3.3-.5 4-1.8 0 0 2.8-5.4 2.8-5.4.1-.2.1-.3.1-.4.3-.4.3-.5.1-.7z"/><path d="m25.5 6.9-6.4 6.5-1.9-6.5s-6.8 0-8.3 0c-1.4 0-1.9.5-2.4 1.4 0 .1-6.5 12.3-6.5 12.3h6.9l5.3-10h1.4l2.2 7.1h4.7l7.8-7.1h1.9l-5.3 9.9h6.9l6.3-11.9c.6-1.5.4-1.8-1.5-1.8z"/></g><path clip-rule="evenodd" d="m192.8 27.4c1.2 0 1.3-.6.4-1.3l-9.1-7.4c-.9-.7-2.1-.7-3.1.1l-2.4 1.5c-1.2.8-2.6.9-3.5.4s-2.4-.5-3.4.1l-9.5 5.5c-1 .6-.9 1.1.3 1.1z" fill="#91c300" fill-rule="evenodd"/><path clip-rule="evenodd" d="m199.4 22c1.7 1.7-.8 2.1-2.1 1.1l-13.6-10.5c-1-.7-2.3-.5-3.3.2l-2.6 1.7c-1 .7-2.4.9-3.4.3l-.1-.1c-1-.6-2.6-.6-3.6 0l-13.1 8.6c-1.1.7-2.9.1-1.5-1.4l20.2-21.5c.7-.7 2.4-.7 3.1 0z" fill="#91c300" fill-rule="evenodd"/></svg>