<svg enable-background="new 0 0 623.6 191.1" viewBox="0 0 623.6 191.1" xmlns="http://www.w3.org/2000/svg"><path d="m0 0h623.6v191.1h-623.6z" fill="#fd0"/><g fill="#e21617"><path d="m183.1 92.3h67c10.9 0 19.7 8.8 19.7 19.7 0 8.3-5.1 15.4-12.4 18.3l13.8 19.9h-38.2l-9.8-18.5h-8.6v18.5h-31.6v-57.9zm47.5 12.3h-15.8v13.8h15.8c3.8 0 6.9-3.1 6.9-6.9s-3.1-6.9-6.9-6.9"/><path d="m412.4 137.6h32.5v12.7h-65.3v-58h32.8z"/><path d="m321.3 137.6h40.1v12.7h-73.5v-58h69.8v12.8h-36.4v9.8h36.4v12.8h-36.4z"/><path d="m487.1 137.6h32.5v12.7h-65.3v-58h32.8z"/><path d="m53.8 39.9h55.2 440.6c11.2 0 20.3 9.1 20.3 20.3s-9.1 20.3-20.3 20.3h-440.6v69.8h-55.2v-69.8zm434.7 13.4h-379.5v13.5h379.5c3.7 0 6.8-3 6.8-6.8 0-3.7-3-6.7-6.8-6.7"/><path d="m130.3 92.3h31.6v58h-31.6z"/><path d="m528.7 92.3h31.6v58h-31.6z"/></g></svg>