<svg enable-background="new 0 0 138.1 34.2" viewBox="0 0 138.1 34.2" xmlns="http://www.w3.org/2000/svg"><path d="m62.1 17.1s1.4-1.5 2.6-2.8c1.6-1.7 2.2-3 2.2-5.8 0-2.7 0-8 0-8h-5v7c0 2.7-.7 2.8-1.8 4.1-.8.9-1.5 1.5-1.5 1.5-.2.2-.3.4-.5.6v-13.2h-5v33.1h5v-13.2l.5.6 1.5 1.6c1.1 1.2 1.8 1.4 1.8 4.1v7h5s0-5.3 0-8-.6-4-2.2-5.8zm15.3-3.9c-1-1-1.4-1.3-1.4-3.2v-3c0-.9.7-1.7 1.6-1.7h.4c.9 0 1.6.8 1.6 1.7v5.8h5v-5.7c0-3.9-2.9-7-6.6-7h-.5c-3.6-.1-6.5 3.1-6.5 7v3.5c0 2.6.6 3.8 1.7 5.1l5.5 5.4c1 1 1.4 1.3 1.4 3.2v3c0 .9-.7 1.7-1.6 1.7h-.5c-.9 0-1.6-.8-1.6-1.7v-5.7h-5v5.7c0 3.9 2.9 7 6.6 7h.5c3.6 0 6.6-3.1 6.6-7 0 0 0-.9 0-3.5s-.6-3.8-1.7-5.1zm-33.2 10v4c0 .9-.7 1.7-1.6 1.7h-.6c-.9 0-1.6-.8-1.6-1.7v-20.2c0-.9.7-1.7 1.6-1.7h.5c.9 0 1.6.8 1.6 1.7v5.8h5v-5.7c0-3.9-2.9-7-6.6-7.1h-.5c-3.6 0-6.6 3.2-6.6 7.1v20.1c0 3.9 3 7 6.6 7h.5c3.6 0 6.6-3.1 6.6-7v-4zm70.9 4c0 .9-.7 1.7-1.6 1.7h-.5c-.9 0-1.6-.8-1.6-1.7v-20.2c0-.9.7-1.7 1.6-1.7h.5c.9 0 1.6.8 1.6 1.7zm-1.6-27.2h-.5c-3.6 0-6.6 3.2-6.6 7v20.1c0 3.9 2.9 7 6.6 7h.5c3.6 0 6.6-3.1 6.6-7v-20c0-3.9-2.9-7.1-6.6-7.1zm-87.1 27.2c0 .9-.7 1.7-1.6 1.7h-.5c-.9 0-1.6-.8-1.6-1.7v-20.2c0-.9.7-1.7 1.6-1.7h.5c.9 0 1.6.8 1.6 1.7zm-1.6-27.2h-.5c-3.6 0-6.6 3.2-6.6 7v20.1c0 3.9 3 7 6.6 7h.5c3.6 0 6.6-3.1 6.6-7v-20.1c0-3.8-2.9-7-6.6-7zm110.2 17.3-.1-.1.1-.1s.9-.7 1.5-1.6c1.2-1.6 1.5-2.2 1.5-5.1 0-4.2 0-9.9 0-9.9h-5v9.7c0 1.2-.7 2-1 2.4s-.6.7-.6.7l-.4.3-.4-.3s-.4-.3-.6-.7-1-1.3-1-2.4v-9.6h-5v9.9c0 2.9.3 3.6 1.5 5.1.7.8 1.5 1.6 1.5 1.6l.1.1-.1.1-1.5 1.6c-1.2 1.5-1.5 2.1-1.5 5.1v9.9h5s0-8.5 0-9.7.7-2 1-2.4l.6-.7.4-.4.4.4.6.7c.2.4 1 1.2 1 2.4s0 9.7 0 9.7h5v-10c0-3-.2-3.6-1.5-5.1zm-37.6-2.9h-3.7v-13.8h-5v33.1h5v-13.9h3.7v13.9h5v-33.1h-5zm-88.7-1.5c0 .9-.7 1.7-1.6 1.7h-2.1v-8.9h2.1c.9 0 1.6.8 1.6 1.7zm2.7 4.2c1.4-1.3 2.3-3.2 2.3-5.3v-4.2c0-3.9-2.9-7-6.6-7h-7.1v33.1h5v-13.8h2.1c.9 0 1.6.8 1.6 1.7v12.1h5v-11.3c0-2.1-.9-4-2.3-5.3z" fill="#fff"/></svg>