<?xml version="1.0" encoding="utf-8"?>
<!-- Generator: Adobe Illustrator 25.0.1, SVG Export Plug-In . SVG Version: 6.00 Build 0)  -->
<svg version="1.1" id="Layer_1" xmlns="http://www.w3.org/2000/svg" xmlns:xlink="http://www.w3.org/1999/xlink" x="0px" y="0px"
	 viewBox="0 0 80.7 26.4" style="enable-background:new 0 0 80.7 26.4;" xml:space="preserve">
<style type="text/css">
	.st0{fill:#004C97;}
	.st1{fill-rule:evenodd;clip-rule:evenodd;fill:#004C97;}
	.st2{display:none;}
	.st3{display:inline;opacity:0.52;fill:#E3000B;enable-background:new    ;}
</style>
<g id="Logo_und_Fläche_x5F_3_x5F_S_x5F_Einh">
	<g id="Schwalbe_x5F_Logo_x5F_unten_x5F_3_x5F_S_Einh">
		<path class="st0" d="M14.2,13.9c0.1,1.5,1.5,2,3.3,2c1.7,0,3.8-0.6,4.2-2.3c0.2-0.7-0.1-1.4-0.8-1.7c-0.7-0.3-1.5-0.4-2.2-0.5
			c-0.3-0.1-0.9-0.1-0.8-0.5s0.6-0.4,0.9-0.4c0.6,0,1.1,0.2,1.2,0.7l2.2-0.5c-0.2-1.2-1.5-1.6-3-1.6c-0.8,0-1.7,0.1-2.5,0.5
			s-1.3,1-1.4,1.7c-0.4,1.6,1.4,1.9,2.9,2.2c0.4,0.1,1,0.1,0.9,0.5s-0.7,0.4-1.1,0.4c-0.7,0-1.2-0.2-1.3-0.8L14.2,13.9L14.2,13.9z"
			/>
		<path class="st0" d="M27.5,13.3c-0.2,0.6-0.6,1.1-1.4,1.1c-1.1,0-0.9-1.1-0.8-1.8c0.1-0.6,0.5-2,1.6-2c0.9,0,1,0.7,0.8,1.3
			l2.4-0.1c0.2-1.7-0.8-2.7-2.9-2.7c-2.6,0-4.1,1.6-4.6,3.5c-0.4,1.9,0.5,3.4,3,3.4c1.9,0,3.5-1,4-2.5L27.5,13.3L27.5,13.3z"/>
		<polygon class="st0" points="38.9,9.2 36.3,9.2 35.8,11.7 33.8,11.7 34.4,9.2 31.8,9.2 30.3,15.9 32.9,15.9 33.4,13.3 35.4,13.3 
			34.8,15.9 37.3,15.9 		"/>
		<polygon class="st0" points="50.6,9.2 48.6,9.2 46.6,13.1 46.6,13.1 46.2,9.2 44.3,9.2 42.2,13.1 42.2,13.1 42,9.2 39.6,9.2 
			40.3,15.9 42.5,15.9 44.4,12.2 44.4,12.2 44.7,15.9 46.8,15.9 		"/>
		<path class="st1" d="M53.5,15.9h2.6l-1-6.7h-2.7l-4.1,6.7h2.1l0.8-1.3h2.2L53.5,15.9L53.5,15.9z M51.9,13.1l1.1-1.9l0.2,1.9H51.9
			L51.9,13.1z"/>
		<polygon class="st0" points="63.1,14.2 59.8,14.2 61,9.2 58.4,9.2 56.9,15.9 62.7,15.9 		"/>
		<path class="st1" d="M63.4,15.9h3.8c0.7,0,1.6,0,2.4-0.4c0.7-0.3,1.1-1,1.2-1.6c0.2-0.8-0.3-1.4-1.3-1.5l0,0
			c0.9-0.2,1.6-0.8,1.7-1.5c0.1-0.5-0.1-1.1-0.6-1.4c-0.4-0.3-1.1-0.3-1.7-0.3h-4L63.4,15.9L63.4,15.9z M66.1,14.4l0.3-1.2h1
			c0.2,0,0.5,0,0.7,0.1s0.3,0.3,0.3,0.5s-0.2,0.4-0.4,0.5c-0.2,0.1-0.5,0.1-0.8,0.1H66.1L66.1,14.4z M66.7,11.8l0.3-1.1h1
			c0.5,0,1,0.1,0.9,0.6c0,0.2-0.2,0.3-0.3,0.4c-0.2,0.1-0.5,0.1-0.7,0.1H66.7L66.7,11.8z"/>
		<polygon class="st0" points="78,14.3 74.3,14.3 74.5,13.2 78.2,13.2 78.6,11.7 74.9,11.7 75.1,10.7 78.8,10.7 79.2,9.2 72.9,9.2 
			71.4,15.9 77.6,15.9 		"/>
		<path class="st0" d="M80.6,2C80.7,2,80.7,2.1,80.6,2c0.1,0.1,0.1,0.2,0,0.2C75,1.7,67.3,1.3,61,1.3c-11.2,0-22.9,0.9-31.2,2.5
			C18,6,10.9,8.5,10.9,13.2c0,4.2,5,6.3,14,8.5c8.9,2.2,22.6,3.5,36.1,3.5c6.2,0,9,0.2,14.5-0.3c0.1,0,0.2,0.1,0.2,0.1
			c0,0.1-0.1,0.1-0.2,0.1c-6.9,0.8-14.6,1.3-22.8,1.3C23.6,26.4,0,20.5,0,13.2C0,5.9,23.6,0,52.7,0C63,0,72.5,0.8,80.6,2L80.6,2z"/>
	</g>
</g>
<g id="Abstandsbalken" class="st2">
	<rect x="15.2" y="-57.2" class="st3" width="6.9" height="6.9"/>
	<rect x="15.2" y="-50.4" class="st3" width="6.9" height="6.9"/>
	<rect x="-6.9" y="-34.4" class="st3" width="6.9" height="6.9"/>
	<rect x="80.7" y="-34.4" class="st3" width="6.9" height="6.9"/>
	<rect x="15.2" y="-64.1" class="st3" width="6.9" height="6.9"/>
</g>
<g id="Hilfslinien" class="st2">
</g>
</svg>
