<svg enable-background="new 0 0 116 15" viewBox="0 0 116 15" xmlns="http://www.w3.org/2000/svg"><path d="m113.8 13.1v-.6h.4c.2 0 .4 0 .4.3s-.2.3-.4.3zm0 .3h.3l.5.8h.3l-.5-.8c.3 0 .5-.2.5-.5 0-.4-.2-.5-.7-.5h-.7v1.9h.3zm.3 1.5c.9 0 1.6-.7 1.6-1.6s-.7-1.6-1.6-1.6-1.6.7-1.6 1.6.8 1.6 1.6 1.6zm-1.3-1.7c0-.8.6-1.4 1.3-1.4s1.3.6 1.3 1.4-.6 1.4-1.3 1.4-1.3-.6-1.3-1.4zm-10.4 1.7 2.9-11.4h-4.9l-2.8 11.4h-7.8l2.9-11.4h-4.9l-3 11.4h-8.1l3.9-14.9s26.1-.1 28.9 0c1.7 0 4.1 1.7 3.3 5.1-1 4-1.7 7.4-2.3 9.8-2.8 0-3.7 0-8.1 0zm-35.6-8.1h-6.2l.9-3.6h6.1zm-8.1-6.8c-1.3 0-4-.2-5.4 4.2-.7 2.3-2.9 10.7-2.9 10.7s2.2 0 3.9 0c1.8 0 3.7.1 4.3-1.1.5-1.1 1.2-3.9 1.2-3.9h6.4l-1.3 5h8.1c3.7-14.2 3.9-14.9 3.9-14.9zm-47.3 3.2-.7 2.8h13.1s-.6 2.2-1.2 4.4c-.8 3.1-2.5 4.5-5.9 4.5h-16.7l.8-3.1h13.4l.8-3.2h-13.4s.1-.4.4-1.6c.2-.7.4-1.4.6-2.2.6-2.2 1.6-4.5 5.3-4.7h17.4l-.9 3.1zm29.7 3.6h-6.2l1-3.6h6.1zm5.2-6.8h-13.3c-4.7 0-5.3 3.8-5.5 4.2-.2.5-2.1 8.2-2.8 10.7h8.1l1.6-6c.2.2 3.3 4.1 4.3 5.2.8.9 1.4.8 4.4.8h4.9l-4.5-5.4h5c.3-1.5.8-3.2 1.2-4.8.7-2.7-1.4-4.7-3.4-4.7z" fill="#fff"/></svg>