<svg enable-background="new 0 0 1722 1722" viewBox="0 0 1722 1722" xmlns="http://www.w3.org/2000/svg"><path d="m258.1 258.2-249.4 249.4v353.4 353.4l249.5 249.5 249.4 249.4h353.4 353.4l249.5-249.5 249.4-249.4v-353.4-353.4l-249.5-249.5-249.4-249.4h-353.4-353.4z" fill="#fbd4c2"/><path d="m279.3 279.9-240.3 240.9v340.9 340.8l240.9 240.2 240.9 240.3h340.9 340.8l240.3-240.9 240.2-240.9v-340.9-340.8l-240.9-240.3-240.9-240.2h-340.9-340.8zm1145.4 17.3 233.3 233.3v330.5 330.5l-233.2 233.2-233.3 233.3h-330.5-330.5l-233.2-233.2-233.3-233.3v-330.5-330.5l233.2-233.2 233.3-233.3h330.5 330.5z" fill="#bf242f"/><path d="m812.4 138.9c-4 2.4-7.3 9.3-8.6 17.9-1.9 12.5-4.4 19.5-8.9 24.6-7.1 8.1-15.1 10.4-25.3 7.4-6.7-2-14.7-10.7-18.6-20.3-5.9-14.8-11.5-21.5-17.5-21.5-6.8 0-9.7 7.1-11.4 28-1 12.5-3.3 18.1-9.6 23.9-6.5 6-14 7.5-22.7 4.5-6.8-2.3-11.9-7.3-18.8-18.5-7.7-12.5-11.1-16.5-15.6-17.9-2.9-1-3.9-.9-6 .5-4.7 3.1-5.7 7.4-5.5 25.2l.1 16.1-3.3 6.4c-5.8 11.2-15.7 15.7-27.2 12.3-4.6-1.3-6.9-2.8-11.9-7.8-3.4-3.4-8.3-9-10.9-12.4-4.8-6.4-10.2-10.7-14.8-11.8-2-.5-3.4 0-5.5 1.8-2.7 2.4-2.9 3.1-3.2 11-.3 5.3.2 11.5 1.3 16.7 2.6 12.8.8 22-5.8 28.9-6.5 6.8-16.2 8.8-26.3 5.4-3.9-1.3-7-3.8-15.4-12.3-11.1-11.2-16.4-14.6-20.8-13.5-8.4 2.1-9.4 10.3-3.6 28.7 3 9.5 3.5 12.2 3 17.1-1.8 17.9-18.4 27.6-34.5 20.2-2.9-1.4-8.7-5.2-12.8-8.5-9.3-7.5-16-11-21.2-11-9.1 0-9.3 10.7-.6 30.1 7.7 16.9 4.5 31.8-8 37.9-10.4 5.1-19.2 3.7-32.5-5.2-14.5-9.6-23.8-11.8-27.5-6.5-3.4 4.8-1.1 13.6 6.8 26.7 5.2 8.6 6.7 13.1 6.7 20.4 0 7.7-2.4 13.1-7.9 17.8-8.9 7.6-18.5 7.6-34.9-.1-16.7-7.8-22.6-8.8-26.7-4.6-1.5 1.4-2.5 3.6-2.5 5.2 0 4.1 4.9 13.8 10.9 21.6 12.5 16.2 13.3 29.7 2.6 39.6-8.2 7.6-18.7 8.8-31.9 3.6-7.1-2.9-17.7-5.5-22.2-5.5s-8.4 3.4-8.4 7.3c0 4.5 4.8 12.3 13 21.2 13.7 14.7 16.3 27 8.1 38.2-3.5 4.9-11.5 9.1-18.7 9.9-3.5.5-7.5 0-13.4-1.5-9.6-2.5-19.6-3.7-23.4-2.7-4 1-6.6 4.1-6.6 7.8 0 5.1 4.6 11.1 15 19.7 8.4 6.9 12.5 12 14.6 18.3 6.1 18.5-10.4 34.6-31.9 30.9-3.7-.6-10.4-1.1-14.8-1.1-11.6 0-14.8 2.2-14.9 9.9 0 4.1.4 4.9 4.9 9 2.7 2.6 7.5 6.1 10.7 8 14.1 8.3 19.8 15.9 19.9 26.6 0 3.3-.4 7-.8 8.2-.8 2.3-.8 2.3 8.6 2.3h9.5l2.7-8.8c11-35.5 30.7-81.8 49-115.4 31-56.7 66.1-103.5 112-149.3 53.5-53.6 108.1-92.5 177-126.1 71.8-35 147.2-56.1 230-64.1 25.4-2.4 87.6-2.4 113 0 102.4 9.9 195.8 40.6 282 92.5 131.8 79.4 233.4 206.8 282.2 353.9l5.7 17.3h12.8c7 0 12.8-.2 12.8-.4 0-.3-1.2-1.8-2.6-3.3-11.5-12.2-7.2-29.6 10.2-40.8 7.5-4.8 14.7-10.4 16.6-12.8 2.1-2.6 2.4-9.6.5-12.1-2.7-3.7-10.1-4.5-24.8-2.8-12.2 1.4-13.9 1.4-18.9-.1-10.6-3.1-18.4-12.5-18.4-22.2 0-8.3 3.1-13.3 16.2-26.8 12.7-12.9 14.2-15 14.2-19.2 0-8.7-9.4-10.5-28.5-5.4-17.7 4.7-30.6.4-36.2-11.8-4.9-10.6-2.1-20.6 9-32.9 7.8-8.7 12.6-16.2 13.4-20.7.4-3 .1-4-2.2-6.3-2.5-2.5-3.1-2.6-8.8-2-3.3.3-10.8 2.3-16.6 4.3-7.9 2.7-12.2 3.6-17.1 3.6-17.9.1-28.7-14.2-23.6-31.5 1-3.6 3.6-8.3 7.2-13 13.8-17.9 15-29.8 3.1-29.8-5.5 0-12.9 2.5-23.5 8.1-7.8 4.1-8.9 4.4-16 4.4-8.3 0-12.3-1.5-17.5-6.4-9.2-8.5-9.4-20.5-.6-36.8 5-9.3 8.9-19.1 8.9-22.5 0-1-1.1-3-2.5-4.3-4.9-5-12.6-3-27 6.8-7.5 5.1-15.9 8.6-20.6 8.7-9.1 0-18.3-5.1-22.1-12.3-3.9-7.3-3.2-14.6 3.1-32.6 4-11.6 5.2-16.2 4.8-18.9-.9-5.1-3.3-7.2-8.1-7.2-5.1 0-11.4 3.6-21.7 12.3-12 10.1-22.1 12.9-31.5 8.8-6.4-2.9-9.2-5.5-12-11.6-3.2-6.7-3.1-14.6.1-25.6 4.8-16 4.4-26.3-1.1-28.8-5.3-2.4-12.8 2-24.4 14.2-11.1 11.7-20.4 15.5-30.7 12.6-6.8-1.9-13.6-8.8-15.7-15.8-1.8-6.3-2.1-13.1-.6-18.1.6-1.9 1.3-7.4 1.7-12.1.5-7 .3-9.2-1.2-12.3-4.9-10.2-15.2-5.2-29 13.9-4.1 5.7-6.2 7.6-11.3 10.2-14 7.2-27 2.8-33.4-11.2-2-4.5-2.3-6.6-2.4-21-.1-12.6-.5-16.9-1.8-20-2-4.7-3-5.5-7.5-5.5-2.9 0-4.3.9-8.5 5.3-2.8 2.9-6.6 8-8.5 11.2-9.4 16.3-16.5 22-27.6 21.9-7.4 0-12.8-2.6-17.9-8.5-4.8-5.7-6.4-11.2-7.5-25.6-1.3-17.2-4.3-23.3-11.4-23.3-5.3 0-11.8 8.6-17.2 22.8-8.3 21.4-29 27.9-42.7 13.6-4.8-5.1-7.5-11.4-8.8-20.5-2.7-19.5-10.2-28.2-19-21.9-3.4 2.4-7 9.9-10 20.5-2.6 9.5-4 12.3-8.3 17.1-6.7 7.7-17.8 10.3-26.7 6.3-8.8-4-14.4-11.6-17.5-24-2.4-9.3-6.4-17-10.4-19.7-4.1-2.7-4.8-2.7-8.7-.3z" fill="#bf242f"/><path d="m809.8 255.4c-9.2.7-17 1.4-17.3 1.7-.7.8 3.7 71.6 4.5 73 .5.6 3.4.8 8.4.3l7.7-.7-.6-9.1c-.3-5-.8-11.4-1.1-14.3l-.5-5.1 7.6-.7c4.2-.4 9.7-.5 12.3-.2 7.1.8 8.3 2.9 11.3 19.7l1.4 7.5 8-.3c4.3-.2 8-.4 8.2-.5.1-.2-.4-2.5-1.2-5.2-.7-2.8-1.6-7.5-2-10.7-.8-7-4.1-13.7-8-16.3l-3-1.9 3.7-3.4c4.6-4.1 6.1-8.7 5.6-16.2-.6-7.9-4.2-13.3-11.1-16.6-5.9-2.7-7.6-2.8-33.9-1zm23.7 13c6.6 2.8 7.2 14.1 1 17.7-2 1.2-6.5 2-13.7 2.5l-10.8.7-.2-7.2c-.1-3.9-.2-8.6-.2-10.4l-.1-3.2 7-.6c12.2-1 13.5-.9 17 .5z" fill="#052848"/><path d="m874.6 255.2c-.5 1.6-2.8 72-2.4 72.3.2.1 3.8.5 8 .7l7.7.5.5-6.1c.3-3.4.8-15.1 1.1-26.1s.8-25.1 1.1-31.3l.6-11.2h-8.1c-5.7 0-8.3.4-8.5 1.2z" fill="#052848"/><path d="m905.6 254.9c-.2.3-.7 3.4-1.1 6.8l-.7 6.2 3.4.5c1.8.3 6.6 1 10.6 1.5 4.1.5 7.5 1.1 7.7 1.3s-1.3 13.5-3.2 29.6c-2 16-3.4 29.5-3.1 29.8.7.7 14.9 2.7 15.4 2.1.2-.2 2-13.6 4-29.8s3.7-29.5 3.9-29.7c.1-.2 4 .2 8.6.8 14.2 1.7 13.5 2 14.3-5.2.3-3.4.4-6.3.1-6.6-.7-.8-59.6-7.9-59.9-7.3z" fill="#052848"/><path d="m741.5 265.1c-13.2 2.7-24.5 5.1-25.1 5.3-.8.3 1 11.4 5.7 34.8 3.8 18.9 7.1 35.2 7.4 36.4.5 2.1.8 2.1 27.7-3.3 15-3 27.5-5.7 27.7-5.9.2-.1-.2-3.3-.9-7-1.2-6.4-1.4-6.6-3.9-6.1-30 5.9-36.1 7-36.5 6.6-.9-.9-3.8-16-3.2-16.6.3-.3 8-2.1 17.2-3.9 9.2-1.9 16.9-3.5 17-3.7.2-.2-.2-3-.8-6.3l-1.1-6-17.4 3.4c-9.5 1.9-17.5 3.3-17.8 3-.7-.6-3.4-14.2-3-14.7.3-.2 8-1.9 17.2-3.7 9.2-1.9 17.8-3.6 18.9-3.9 2.3-.5 2.3-.5-.1-11.3-.7-2.9-.5-2.9-29 2.9z" fill="#052848"/><path d="m972.7 300c-11.9 17.6-21.8 32.6-22 33.2-.1.7 2.1 1.7 5.1 2.4 2.9.7 6.4 1.5 7.7 1.8 2.2.6 3-.1 7-6.4 3.4-5.3 5-7 6.7-7 1.3.1 7.5 1.4 13.8 2.9l11.5 2.8.8 8.4c.4 4.5.9 8.4 1.1 8.7.6.5 15.8 4.4 16.1 4 .7-.9-9.7-78.3-10.7-78.9-.6-.4-3.8-1.2-7-1.9-3.3-.6-6.5-1.3-7.2-1.6-.6-.2-10.7 13.6-22.9 31.6zm27.2 2.9c.6 6.8.9 12.6.6 12.9-.6.6-16.4-2.9-17-3.8s13.9-23 14.6-22.2c.3.4 1.1 6.3 1.8 13.1z" fill="#052848"/><path d="m691.8 276.8-7.8 2.6-.2 27-.3 27.1-15.8-21.7-15.8-21.6-7.7 2.5c-4.2 1.4-7.9 2.7-8.1 2.9-.2.1 10.2 14.4 23 31.7l23.3 31.4 8.8-2.9 8.8-3v-39.4c0-21.7-.1-39.4-.2-39.3-.2 0-3.8 1.3-8 2.7z" fill="#052848"/><path d="m1040.1 318.5c-7.4 19-13.2 34.7-13 34.9.2.3 8.7 3.7 18.9 7.7 17.5 6.9 18.9 7.3 26.7 7.3 7.5.1 8.5-.1 12.4-2.9 9.6-6.8 12.1-23.1 4.5-29.4-2.3-1.9-2-2.8 1.2-3.4 3.9-.8 7.9-4.2 10.3-9 1.7-3.1 2-5.3 1.7-9.9-.5-6.2-2.9-9.8-9.3-13.8-2.3-1.4-38.7-16-39.8-16-.1 0-6.2 15.5-13.6 34.5zm33.3-13c4.9 1.9 9.5 4 10.3 4.7 5.6 4.6 1.7 14.8-5.6 14.8-1.2 0-6.1-1.6-11-3.6l-8.9-3.5 3.1-8c1.6-4.3 3-7.9 3.1-7.9s4.1 1.6 9 3.5zm-9.1 27.1c9.8 3.7 13.2 6.1 14.1 9.9 1.3 5.3-3.8 12.5-8.8 12.5-2.4 0-20.8-6.2-22.5-7.6-.2-.2.9-3.4 2.4-7.1s3.1-7.8 3.6-9.1c.5-1.2 1.1-2.2 1.4-2.2s4.7 1.6 9.8 3.6z" fill="#052848"/><path d="m1128.7 318.2c-2.9 4.6-33.7 61.8-33.7 62.6 0 .6 44.3 25.2 45.4 25.2 1.2 0 6.7-11.3 6-12-.5-.5-7.2-4.3-14.9-8.5s-14.4-8-14.8-8.4c-.5-.5 5.5-12.4 13.2-26.6 7.8-14.2 14.1-26.2 14.1-26.7 0-.6-7.7-5.1-13.2-7.6-.4-.2-1.3.7-2.1 2z" fill="#052848"/><path d="m565.2 330.1c-6.7 3.8-7.3 4.3-6.8 6.8.3 1.4 2.8 18.6 5.6 38.1 2.9 19.5 5.3 36.1 5.6 36.8.2.9 2 .3 6.1-1.9 9.1-5 8.8-4.5 7.1-13.9-1-5.7-1.2-8.3-.4-8.8.6-.4 6-3.5 12.1-6.8l11-6.2 6.5 5.9 6.5 5.8 6.6-3.7c3.7-2 6.8-4.2 7-4.7.2-.8-58.3-51.6-59.4-51.5-.1 0-3.5 1.9-7.5 4.1zm20.1 25.9c5.2 4.7 9.6 8.8 9.6 9.2.1.9-14.9 9.2-15.5 8.5-.8-.8-5.2-26.8-4.4-26.5.4.2 5 4.1 10.3 8.8z" fill="#052848"/><path d="m1169.2 379.9c-11.6 16.5-21.2 30.3-21.1 30.8.1 1.4 44.8 32.5 45.8 31.9.5-.3 2.5-2.8 4.4-5.5l3.5-4.9-16.3-11.6-16.4-11.7 4.5-6.4c2.5-3.6 5-6.7 5.5-7.1.6-.3 3.6 1.2 6.7 3.5 3.1 2.2 9.6 6.7 14.4 10.1l8.6 6 3.6-4.9c2-2.7 3.6-5.1 3.6-5.3 0-.3-6.5-5.1-14.5-10.8l-14.4-10.3 4.1-5.9c2.3-3.2 4.4-6.1 4.8-6.3.3-.2 7.4 4.6 15.8 10.6s15.6 10.9 16.1 10.9c.7 0 3.9-4.3 7.4-9.7.5-.8-6.4-6.3-21.8-17.3-12.4-8.8-22.7-16-22.8-16s-9.8 13.5-21.5 29.9z" fill="#052848"/><path d="m827.5 364.6c-2.2.2-9.2.9-15.5 1.5-98.6 9.1-193.2 49-272 114.8-14.9 12.4-46.9 44.4-59.1 59.1-26.9 32.4-49.9 67.6-66.9 102.5-5.2 10.6-14 30.3-14 31.2 0 .2 10.1.3 22.4.3h22.4l12.3-12.3c18-18 34.1-28.2 56.6-35.6 16.2-5.4 24.1-6.6 43.8-6.6 21.4.1 34.4 2.2 51.9 8.7 22.8 8.4 34.9 16.3 56.2 37 8.4 8.2 15.5 14.8 15.9 14.8 1.7 0 5.6-2.8 11.4-8.3 13.1-12.1 31.1-25.3 45.6-33.2 8.2-4.5 11.5-7.2 11.5-9.6 0-.9-3.6-8.8-7.9-17.5-13.8-27.6-18.5-45.2-18.5-69.9.1-39.9 14.2-74.3 41.9-102 20.1-20.2 43.3-32.8 71.5-39 11.6-2.6 39.1-3.1 52-1.1 28.5 4.5 54.7 18.3 76.5 40.1 21.2 21.2 35.4 47.5 41.2 76.2 2.7 13.3 2.4 40.3-.6 54.3-3.3 15.8-8.3 29.6-16.2 45-3.9 7.7-6.9 14.7-6.7 15.6.4 2.2 6 6.4 16.4 12.3 10.1 5.8 24.2 16.4 37.8 28.4 7.6 6.8 11.7 9.7 13.4 9.7 1.9 0 5.9-3.3 15.6-12.8 15.7-15.3 20.6-19.5 32-26.6 52.1-32.7 123.8-23.3 169.5 22.1l10.3 10.3h21.9c12 0 21.9-.1 21.9-.3 0-2.6-17.8-39.5-26.6-55.2-22.8-40.6-49.1-75.3-82.9-109-26.6-26.6-48.1-44.3-78-64-65.9-43.5-137.5-69.3-219.5-79.1-12.7-1.5-76.7-2.8-87.5-1.8zm-124.6 66.8c4.4 4.7 3.9 8-3.2 22.3-16.5 32.8-22.8 53-27.2 86.1-1.5 11.7-4 18.9-7.8 23.1-2.6 2.8-15.2 11.7-21 14.8-5.2 2.9-10.8 2.9-21.9.3-24.2-5.7-63.4-6.6-92.6-2-15.6 2.4-17.7 2.2-20.7-2.4-3.7-5.6-.6-10.7 19.6-32.3 28.3-30.2 64-58.5 97.9-77.8 17-9.7 68.5-34.5 71.6-34.5 1.9 0 3.9.9 5.3 2.4zm354.6 7.9c35.2 17.2 65.8 37 97 62.8 11.8 9.8 60.7 57.9 63.7 62.7 2.5 4.1 2.7 11.6.2 14.3-2.2 2.4-4.7 2.4-21.9-.3-11.6-1.8-18.2-2.2-39-2.2-23.6 0-26 .2-42.6 3.2s-18 3.1-22.5 1.7c-4.7-1.4-16.4-9.3-23.2-15.8-5.3-5-6.9-9.2-8.2-21.2-3.5-33.2-10.4-56.6-26.1-89.6-6.1-12.8-6.8-14.9-5.9-17.3 1.1-3 5.9-5.5 10.5-5.5 1.7-.1 9.4 3 18 7.2zm-361.7 157.9c4 1.2 9.8 6 11.7 9.8 9 17.4-4.9 37-23.3 32.9-14.9-3.3-20.1-16.6-12.7-32.2 5.1-10.8 12.6-14.1 24.3-10.5zm356.9 2.6c13.5 7 16 24.6 5 35.5-6.6 6.7-14.6 8.3-22.7 4.6-9.5-4.3-14.9-13.3-13.6-22.5 2.1-15.9 17.7-24.5 31.3-17.6z" fill="#bf242f"/><path d="m486.2 382.6c-3.8 2.8-5.9 5-5.5 5.7s10.3 14.1 22.1 30c14.6 19.6 21.8 28.5 22.6 28 .7-.5 10.3-7.5 21.4-15.7l20-14.9-4-5.3c-2.2-3-4.3-5.4-4.5-5.4-.5 0-16.9 11.9-25.9 18.7l-3.1 2.3-17.9-24c-9.8-13.2-18.1-24-18.4-24s-3.4 2.1-6.8 4.6z" fill="#052848"/><path d="m821 533.5v36.5l13.3-.1c17-.1 21.2-1.6 25.9-9.4 2.2-3.8 2.3-5.1 2.6-24.4.5-27.1-1-32.6-9.8-37.1-3.4-1.7-5.9-2-18-2h-14zm29.1-23.5 3 3-.3 21c-.3 20.3-.4 21-2.6 23.2-1.9 2-3.5 2.4-10.7 2.7l-8.5.3v-26.6-26.6h8.1c7.6 0 8.2.2 11 3z" fill="#bf242f"/><path d="m875 533.4v36.6h12.8c14.7 0 18.9-.9 23.7-5.1 7.6-6.7 8.6-21.9 1.9-29.9l-2.6-3 2.2-3c1.1-1.6 2.6-5.4 3.2-8.3 1.6-7.5-1.1-15.7-6.5-20.1l-3.9-3.1-15.4-.3-15.4-.3zm28.3-24.4c3.2 2.5 4.3 7.6 2.7 12.4s-3.4 5.6-12.9 5.6h-8.1v-10-10h7.9c6.4 0 8.3.4 10.4 2zm-.4 29.4c3.2 1.7 5.1 5.4 5.1 10.1 0 8.4-4.1 11.5-15.5 11.5h-7.5v-11.5-11.5h7.5c4.6 0 8.7.6 10.4 1.4z" fill="#bf242f"/><path d="m671.3 739.9c-16.2 2.6-28 8.8-39.2 20.7-16.7 17.7-26.8 42.9-30.2 75-1.5 15.3-.7 51.8 1.5 63.9 5.1 27.8 15 48.9 30 63.7 12.2 12.1 27.1 18.6 45.1 19.5 44.5 2.4 76.1-31 83.9-89 4.4-31.8 2-67.6-6-92.2-10.4-32.1-30.4-53.5-55.8-60-7.4-1.8-22.4-2.7-29.3-1.6zm27.3 44c21.3 9.8 31.8 39.5 30.1 84.6-1.5 37.7-11.4 60.3-30.7 69.8-5.8 2.9-7.4 3.2-15.5 3.2-7.8 0-9.7-.4-14.7-2.8-13.4-6.6-23.9-22.4-28.3-42.4-2.9-13.3-4-33.8-2.7-50 2-26.3 8-43.1 19.2-54.4 11.8-11.8 27.7-14.8 42.6-8z" fill="#052848"/><path d="m838.9 740c-24.5 3.9-41.2 19.4-48.1 44.9-2.9 10.6-2.9 30.4 0 41.2 4.5 16.7 12.9 28.9 25.5 37.3 9.1 6 14 8.2 34.8 15.7 22.6 8.1 27.3 11 31.5 19.5 2.4 4.9 2.6 6.3 2.2 13.7-.7 13-6.1 21.7-16.4 26.8-5.3 2.6-7.5 3.1-14.1 3.3-9.7.1-15.6-1.5-21.9-6.3-6.6-4.9-12.4-16.1-15-28.9-1.6-8-2.1-9.2-3.9-9.2-2.7 0-30.8 4-31.2 4.4-.2.2.3 5 1.2 10.7 5.4 36.3 20.4 58.6 44.9 66.6 10.9 3.5 28.5 4.3 40.7 1.8 23.7-4.8 39-19.4 46.7-44.6 6.6-21.3 4.5-49.4-4.8-68-8.7-17.1-20.7-25.4-54.5-37.5-17-6-25.3-10.3-29.7-15.2-12.8-14.1-3.1-34.4 17.6-36.8 8.4-1 15.7.3 21.7 3.9 4.5 2.7 6 4.3 8.7 9.7 1.8 3.6 3.8 9.6 4.5 13.4l1.1 6.8 9.6-.6c5.2-.4 13-.9 17.3-1.2l7.8-.6-.6-7.7c-2.5-26.5-14.7-48-32.6-57.1-9.9-5.1-30.6-8-43-6z" fill="#052848"/><path d="m1011.1 740.1c-15.3 2.3-26.3 7.9-37.1 18.8-15.7 15.8-26.2 38.7-30.5 66.3-.9 5.7-1.8 18.4-2.2 28.3-1.6 48.9 8.7 85 30.9 108.2 14.7 15.2 33.7 22.4 56.1 21 49.5-2.9 79-53.1 76.4-129.7-1.6-44.4-12.4-74.4-34.6-95.2-12.6-11.9-25.7-17.3-44.1-18.2-4.7-.3-11.4 0-14.9.5zm24.9 42.4c17 6 28.4 25.2 32 53.8 1.5 12.3 1.2 39.4-.6 51.5-3.8 25.6-14 43.4-29.3 50.9-4.9 2.5-6.7 2.8-15.1 2.8-8.9 0-9.9-.2-15.8-3.4-15.8-8.6-25.9-27-29.2-53.5-1.8-14.3-.8-48.6 1.8-59.6 7.1-30.3 23.8-46.3 46.5-44.4 3.1.3 7.5 1.1 9.7 1.9z" fill="#052848"/><path d="m132.7 743.7c-.2.5 13.2 53.6 29.7 118.1l30.1 117.2 18.4-.2 18.4-.3 29.8-116c16.4-63.8 29.8-116.8 29.9-117.8 0-1.6-1.5-1.7-17.9-1.7h-17.9l-4 16.7c-2.2 9.3-11.3 48-20.3 86-9 38.1-16.6 69.3-16.9 69.3s-10-38.6-21.5-85.8l-21-85.7-18.2-.3c-10-.1-18.3.1-18.6.5z" fill="#052848"/><path d="m306.7 743.7c-.4.3-.7 53.4-.7 118v117.3h64.5 64.5v-20-20h-47-47v-32-32h42.5 42.5l-.2-19.8-.3-19.7-42.2-.3-42.3-.2v-25.5-25.5h45.5 45.5v-20.5-20.5h-62.3c-34.3 0-62.7.3-63 .7z" fill="#052848"/><path d="m1131.8 743.6c-.5.4-.8 53.5-.8 118.1v117.3h17.5 17.5v-44.5-44.5h19.8c22.4 0 34.8-1.6 42.6-5.4 14.4-7.1 25.5-23.4 30.2-44.8 2.1-9.1 2.4-36.5.5-45.3-4.5-21.7-14.4-38-27-44.8-9.5-5.2-15-5.8-59.1-6.4-22.3-.3-40.8-.2-41.2.3zm79.4 43.7c8.4 4.9 12.8 13.3 13.6 26 1 18-5.9 30.9-18.7 34.8-2 .6-11.8 1.3-21.8 1.6l-18.3.6v-33.2-33.3l20.3.4c20 .3 20.2.3 24.9 3.1z" fill="#052848"/><path d="m1288.7 743.6c-.4.4-.7 53.5-.7 118.1v117.3h17.5 17.5v-51.5-51.5h33 33v51.5 51.5h17.5 17.5l-.2-117.8-.3-117.7h-17-17l-.3 46.2-.2 46.3h-33-33l-.2-46.3-.3-46.2-16.6-.3c-9.1-.1-16.8.1-17.2.4z" fill="#052848"/><path d="m1458.7 743.7c-.4.3-.7 53.4-.7 118v117.3h64.5 64.5v-20-20h-47-47v-32-32h42.5 42.5l-.2-19.8-.3-19.7-42.2-.3-42.3-.2v-25.5-25.5l45.3-.2 45.2-.3v-20-20l-62.1-.3c-34.1-.1-62.4.1-62.7.5z" fill="#052848"/><path d="m465 862v117h59.5 59.5v-20-20h-42.5-42.5v-97-97h-17-17z" fill="#052848"/><path d="m208 1049.4c0 .3 1.2 1.8 2.6 3.3 11.5 12.2 7.2 29.6-10.2 40.8-7.5 4.8-14.7 10.4-16.6 12.8-2.1 2.6-2.4 9.6-.5 12.1 2.7 3.7 10.1 4.5 24.8 2.8 12.2-1.4 13.9-1.4 18.9.1 10.6 3.1 18.4 12.5 18.4 22.2 0 8.3-3.1 13.3-16.2 26.8-12.7 12.9-14.2 15-14.2 19.2 0 8.7 9.4 10.5 28.5 5.4 17.7-4.7 30.6-.4 36.2 11.8 4.9 10.6 2.1 20.6-9 32.9-7.8 8.7-12.6 16.2-13.4 20.7-.4 3-.1 4 2.2 6.3 2.5 2.5 3.1 2.6 8.8 2 3.3-.3 10.8-2.2 16.6-4.3 17.4-5.9 27.7-4.7 35.9 4.1 9.1 9.8 8.2 22.9-2.4 36.8-13.8 17.9-15 29.8-3.1 29.8 5.5 0 12.9-2.5 23.5-8.1 7.8-4.1 8.9-4.4 16-4.4 8.3 0 12.3 1.5 17.5 6.4 9.2 8.5 9.4 20.5.6 36.8-5 9.3-8.9 19.1-8.9 22.5 0 1 1.1 3 2.5 4.3 4.9 5 12.6 3 27-6.8 7.5-5.1 15.9-8.6 20.6-8.7 9.1 0 18.3 5.1 22.1 12.3 3.9 7.3 3.2 14.6-3.1 32.6-4 11.6-5.2 16.2-4.8 18.9.9 5.1 3.3 7.2 8.1 7.2 5.1 0 11.4-3.6 21.7-12.3 12-10.1 22.1-12.9 31.5-8.8 6.4 2.9 9.2 5.5 12 11.6 3.2 6.7 3.1 14.6-.1 25.6-4.8 16-4.4 26.3 1.1 28.8 5.3 2.4 12.8-2 24.4-14.2 11.1-11.7 20.4-15.5 30.7-12.6 6.8 1.9 13.6 8.8 15.7 15.8 1.8 6.3 2.1 13.1.6 18.1-.6 1.9-1.3 7.4-1.7 12.1-.5 7-.3 9.2 1.2 12.3 4.6 9.8 15.3 5.3 26.6-11 7.9-11.4 15.8-16.3 26.2-16.4 9.6 0 16.4 4.7 20.9 14.5 2 4.5 2.3 6.6 2.4 21 .1 12.6.5 16.9 1.8 20 2 4.7 3 5.5 7.5 5.5 2.9 0 4.3-.9 8.5-5.3 2.8-2.9 6.6-8 8.5-11.2 9.4-16.3 16.5-22 27.6-21.9 7.4 0 12.8 2.6 17.9 8.5 4.8 5.7 6.4 11.2 7.5 25.6 1.3 17.2 4.3 23.3 11.4 23.3 5.3 0 11.8-8.6 17.2-22.8 8.3-21.4 29-27.9 42.7-13.6 4.8 5.1 7.5 11.4 8.8 20.5 2.7 19.5 10.2 28.2 19 21.9 3.4-2.4 7-9.9 10-20.5 2.6-9.5 4-12.3 8.3-17.1 6.7-7.7 17.8-10.3 26.7-6.3 8.7 3.9 14.3 11.4 17.4 23.7 3.3 12.6 7 18.9 12.7 21.2 6.4 2.7 13.1-5.6 15.1-18.6 1.9-12.7 4.4-19.7 8.9-24.8 7.1-8.1 15.1-10.4 25.3-7.4 6.7 2 14.7 10.7 18.6 20.3 5.9 14.8 11.5 21.5 17.5 21.5 6.8 0 9.7-7.1 11.4-28 1-12.5 3.3-18.1 9.6-23.9 6.5-6 14-7.5 22.7-4.5 6.8 2.3 11.9 7.3 18.8 18.5 7.7 12.5 11.1 16.5 15.6 17.9 2.9 1 3.9.9 6-.5 4.7-3.1 5.7-7.4 5.5-25.2l-.1-16.1 3.3-6.4c5.8-11.2 15.7-15.7 27.2-12.3 4.6 1.3 6.9 2.8 11.9 7.8 3.4 3.4 8.3 9 10.9 12.4 4.8 6.4 10.2 10.7 14.8 11.8 2 .5 3.4 0 5.5-1.8 2.7-2.4 2.9-3.1 3.2-11 .3-5.3-.2-11.5-1.3-16.7-2.6-12.8-.8-22 5.8-28.9 6.5-6.8 16.2-8.8 26.3-5.4 3.9 1.3 7 3.8 15.4 12.3 11.1 11.2 16.4 14.6 20.8 13.5 8.4-2.1 9.4-10.3 3.6-28.7-3-9.5-3.5-12.2-3-17.1 1.8-17.9 18.4-27.6 34.5-20.2 2.9 1.4 8.7 5.2 12.8 8.5 9.3 7.5 16 11 21.2 11 9.1 0 9.3-10.7.6-30.1-7.7-16.9-4.5-31.8 8-37.9 10.4-5.1 19.2-3.7 32.5 5.2 14.5 9.6 23.8 11.8 27.5 6.5 3.4-4.8 1.1-13.6-6.8-26.7-5.2-8.6-6.7-13.1-6.7-20.4 0-7.7 2.4-13.1 7.9-17.8 8.9-7.6 18.5-7.6 34.9.1 16.7 7.8 22.6 8.8 26.7 4.6 1.5-1.4 2.5-3.6 2.5-5.2 0-4.1-4.9-13.8-10.9-21.6-12.5-16.2-13.3-29.7-2.6-39.6 8.2-7.6 18.7-8.8 31.9-3.6 7.1 2.9 17.7 5.5 22.2 5.5s8.4-3.4 8.4-7.3c0-4.5-4.8-12.3-13-21.2-13.7-14.7-16.3-27-8.1-38.2 3.5-4.9 11.5-9.1 18.7-9.9 3.5-.5 7.5 0 13.4 1.5 9.6 2.5 19.6 3.7 23.4 2.7 4-1 6.6-4.1 6.6-7.9 0-5-4.6-11-15-19.6-8.4-6.9-12.5-12-14.6-18.3-6.1-18.5 10.4-34.6 31.9-30.9 3.7.6 10.4 1.1 14.8 1.1 11.6 0 14.8-2.2 14.9-9.9 0-4.1-.4-4.9-4.9-9-2.7-2.6-7.5-6.1-10.7-8-14.1-8.3-19.8-15.9-19.9-26.6 0-3.3.4-7 .8-8.3.8-2.2.8-2.2-8.6-2.2h-9.4l-3.8 11.7c-25.9 81.6-69.7 159.8-126.1 225.8-23.5 27.5-59.8 62.4-89.6 86.1-89.7 71.5-201.4 119.5-315.8 135.8-34.5 5-50.7 6-92 6s-57.6-1-92-6c-97.5-14-193.3-51-274.5-106.1-119.1-80.9-208-198.3-254.1-335.7l-5.9-17.6h-12.7c-7.1 0-12.8.2-12.8.4z" fill="#bf242f"/><path d="m401 1049.9c0 3.1 15.7 36 25.6 53.6 22.8 40.6 49.1 75.3 82.9 109 26.6 26.6 48.1 44.3 78 64 67.4 44.5 140.9 70.5 225 79.7 16.2 1.8 80.8 1.8 97 0 104.1-11.4 193.4-49.1 272.5-115.1 14.9-12.4 46.9-44.4 59.1-59.1 27.3-32.8 50-67.8 67.4-103.5 6.7-13.8 12.5-27.1 12.5-28.6 0-.5-8-.9-17.8-.9h-17.7l-9.8 19.2c-9 18-21.7 37.8-26.4 41.4-5.5 4.1-10.5-.2-11.8-10.2-1.1-9.3-5.1-27.8-8.5-39.3l-3.3-11.1h-26.3c-14.5 0-26.4.2-26.4.5s1.6 3.8 3.6 7.7c5.1 10 10.9 28.4 12.9 40.6 2.3 13.7 1.6 38.5-1.4 52.2-6.9 30.9-18 52.2-37 71-20 19.9-46.3 34.1-74.3 40.2-14.6 3.1-37.9 3.1-52.8-.1-36.6-7.7-67.1-26.2-86.8-52.6-6.2-8.2-16.1-27.7-19.7-38.8-1.4-4.3-4.1-16.8-5.9-27.8-1.9-11-4-20.7-4.7-21.6-1.1-1.3-2.7-1.5-9.4-.9-32.4 2.6-41.9 2.6-67.6 0-6.3-.6-6.8-.5-8.2 1.7-.9 1.3-2.7 9.5-4.2 18.2-3.1 18.9-5.7 27.3-13.4 43.3-16.3 33.9-40.7 57.3-74.2 71.2-35.7 14.8-69.1 16.5-101.6 5.1-35.4-12.4-67-40.7-82.7-74-10.2-21.4-13.1-35.1-13.1-60.4.1-17.2.4-20.1 2.9-31 3.1-13.3 7.8-26.4 13.1-36.4 1.9-3.6 3.5-6.9 3.5-7.3 0-.5-11.5-.7-25.7-.6l-25.6.3-1.9 6.5c-1 3.6-3.8 15.9-6.3 27.5-2.5 11.5-4.8 22.1-5.1 23.4s-1.8 3.6-3.4 5.2c-4 4.1-8.3 3.9-12.4-.4s-18.5-30-27.2-48.2l-6.9-14.5h-18.2c-10.1 0-18.3.4-18.3.9zm472.8 95c4.8 2.5 7.6 5.5 10.1 11.1 5.1 11.3-.1 23.8-12.1 29-12.8 5.5-27.8-3-29.5-16.7-1.1-9.8 4.7-19.8 13.7-23.7 5-2.2 13.3-2 17.8.3zm8.3 80.7c4.7 2.1 8.2 5.1 17.6 14.8 21.2 21.9 39.2 35.3 65.4 48.6 17.2 8.8 19.1 11.5 12.7 18.3-2.9 3-4.7 3.8-14.3 6-13.8 3.3-35.6 7-54.5 9.4-11.4 1.4-21.8 1.8-49 1.8-36.8 0-49.2-1-78.7-6.1-23.1-3.9-30.1-5.8-33.4-9-6-5.7-3.5-8.7 15.6-19.1 25.3-13.9 44.7-28.6 65.3-49.7 7.4-7.5 14.8-14.4 16.5-15.3 3.6-1.9 16.4-3.3 25.1-2.7 3.4.2 8.3 1.5 11.7 3z" fill="#bf242f"/><g fill="#052848"><path d="m1198 1277.1c-4.2 1.7-39 28.3-38.5 29.6.2.6 10.6 14.6 23.2 31.1l22.7 30 4.1-2.9c2.2-1.6 5.3-4 6.9-5.3l3-2.3-8.4-10.9c-4.6-6-8.7-11.4-9.2-12-.5-.8 1.7-3 6.4-6.6 14.3-10.8 15-10.7 27.4 1.2l9.3 9.1 6.4-5 6.4-5-9.1-9.5c-9.9-10.2-13.5-12.6-19.2-12.6-3.1 0-3.5-.3-2.9-1.8.4-.9 1-3.7 1.2-6.2.7-6.4-3.6-14.4-10.1-18.8-4.2-2.8-5.6-3.2-11-3.1-3.3 0-7.2.5-8.6 1zm10.2 16.9c3.4 2.6 6.1 8.5 5.2 11.3-.3 1.2-1.4 3-2.3 4.1-1.6 1.9-16.6 13.6-17.4 13.6-.3 0-3.3-3.7-6.8-8.2l-6.3-8.1 4-3.4c7.1-6.1 15.6-11.3 18.4-11.3 1.5 0 3.9.9 5.2 2z"/><path d="m515.2 1284.5c-2.9.8-7.3 2.7-9.7 4.1-6.4 3.7-14.9 13.4-18.7 21.2-3.1 6.2-3.3 7.4-3.3 16.7 0 9.1.3 10.5 3 15.8 3.3 6.6 11.2 14.4 17.7 17.6 12.6 6 26.2 4.1 37.2-5.2l4-3.4-7-5.1c-6.7-4.9-7-5-8.9-3.2-8.1 7.3-18.2 6.6-25.7-1.8-4-4.4-5.4-9-4.5-15 1.2-9 10-21.2 18.2-25.2 14.3-6.9 29.3 3.6 27.2 19-.5 3.8-.3 4.1 4.9 8 3 2.2 6 4.3 6.8 4.6 2.1.8 4.6-7.8 4.6-15.6 0-21-24.6-38.5-45.8-32.5z"/><path d="m571 1315.2c0 1.8.5 14 1.1 27.1l1 23.9-7.1 12.8c-3.8 7-7 13.2-7 13.6 0 1 13.9 8.8 14.6 8.2.2-.2 3.5-6 7.2-12.9l6.9-12.4 24.1-14c13.2-7.7 23.8-14.3 23.4-14.6s-4.1-2.4-8.3-4.7l-7.7-4.1-14.8 8.8c-8.2 4.9-15.1 8.8-15.2 8.6-.2-.2-.7-8.1-1-17.6l-.7-17.3-7.5-4.3c-4.1-2.3-7.8-4.2-8.2-4.3-.5 0-.8 1.5-.8 3.2z"/><path d="m1125 1325.7c-12.9 7.3-24 13.7-24.7 14.1-1.4.9 36 67.9 37.6 67.5.9-.2 48.8-27 50-27.9.6-.5-5.3-11.6-6.5-12-.9-.4-12.3 5.7-33.1 17.6l-3.2 1.9-4.6-8.1c-2.6-4.4-4.5-8.1-4.3-8.3s7.3-4.3 15.8-9c8.5-4.8 15.7-8.9 15.9-9.1.5-.5-3.6-8.3-5.4-10.3-1.1-1.1-3.4-.1-14.2 5.9-7 4-14.2 8.1-15.9 9.1l-3.2 1.9-3.7-6.6c-2-3.7-3.4-7.2-3.2-7.8.3-.6 8.1-5.3 17.5-10.5l17-9.5-3.4-6c-1.8-3.4-3.7-6.1-4.1-6.2s-11.4 5.9-24.3 13.3z"/><path d="m1061.6 1356.4c-13.8 5.6-25.1 10.7-25.3 11.2-.3.8 27.2 70.1 28.1 71.2.4.3 52.9-20.9 53.9-21.8.7-.6-2.8-10.5-4.4-12.4-.4-.5-8.7 2.3-18.6 6.2-9.8 3.9-18.4 7.3-19.1 7.4-.8.2-2.6-2.9-4.7-8l-3.4-8.3 5.2-2.3c2.9-1.2 10.7-4.4 17.3-7l12.1-4.8-2.5-6.3c-2.2-5.7-2.7-6.3-4.6-5.5-1.1.5-8.8 3.6-17 6.9-8.3 3.4-15.3 5.8-15.7 5.4-1.5-1.6-5.9-13.7-5.2-14.3.5-.4 9-3.9 18.9-7.9l18.2-7.2-2.6-6.5c-1.7-4.2-3.1-6.4-4.1-6.3-.9 0-12.8 4.7-26.5 10.3z"/><path d="m643.3 1356.4c-6 1.9-10.4 4.9-15.7 10.6-12.3 13.2-16 33.6-8.7 48.4 3.8 7.7 9.1 12.8 18 17 5.9 2.8 7.6 3.1 15.6 3.1 7.8 0 9.7-.4 14-2.7 6.9-3.6 17-14.7 15.1-16.6-.4-.3-3.7-1.8-7.5-3.2l-7-2.7-3.1 3.8c-4.4 5.5-8.2 7.2-14.6 6.7-6.6-.6-12.6-4.4-15.4-9.8-5.9-11.6 1.6-33.3 13.6-39 11.9-5.8 26 1.9 26.7 14.6.2 3.5.4 3.7 7.6 6.6 4 1.6 7.6 2.6 7.9 2.3.4-.3.6-3.9.6-7.8 0-13-6.7-22.7-20.2-29-5.3-2.5-8.2-3.1-14.7-3.4-4.9-.2-9.6.2-12.2 1.1z"/><path d="m708.5 1375.2c-.6 1.8-17.3 69.8-17.7 72.2-.3 1.7 2.4 2.6 24.7 8.2 13.8 3.5 25.7 6.4 26.6 6.4 1.1 0 2-1.7 2.9-5.8.7-3.1 1.4-6.2 1.7-6.7.2-.6-7.3-2.9-17.7-5.5-13.6-3.3-18-4.8-18-6 0-.8 3.2-14.5 7.1-30.3s6.9-29 6.6-29.3c-.4-.4-14.2-4.3-15.5-4.4-.1 0-.5.6-.7 1.2z"/><path d="m984.5 1381.1c-10.9 2.7-20.1 5.2-20.4 5.4-.4.5 17.8 73.5 18.6 74.5.5.6 34.7-7.9 41.2-10.3 6.9-2.5 13.5-8.6 15.7-14.3 4.3-11.2-2.7-25.2-13.9-27.8l-2.8-.7 2.6-4.3c5.2-8.9 2.1-21-6.5-25.4-6.4-3.2-11.8-2.8-34.5 2.9zm27.1 14.5c2 4.7 1.8 6.2-1.3 9.3-2.1 2-5.2 3.3-12.1 5.1-5.3 1.3-9.7 1.9-10.1 1.4-.8-.9-4.1-13.3-4.1-15.2 0-.9 12.5-4.7 18-5.4 4.4-.6 8.1 1.2 9.6 4.8zm7.7 25.4c5.5 4.4 5.6 12.9.2 16.4-2.5 1.6-22.4 7-23.2 6.2-.7-.7-5.3-19-4.8-19.4.9-.9 18.3-5 21.6-5.1 2.2-.1 4.6.7 6.2 1.9z"/><path d="m769.5 1389.2c-1.3 4.1-11.4 74.3-10.8 74.8.7.7 15.5 3.2 15.9 2.7.1-.1 2.9-17.3 6.1-38.2l5.9-38-6.5-1.2c-8.6-1.5-10.1-1.6-10.6-.1z"/><path d="m899.5 1394.1c-14.3.9-28.4 1.8-31.3 1.8l-5.2.1.6 7.2c.4 4 .7 7.3.8 7.4 0 0 5.1-.2 11.1-.6 6.1-.4 11.2-.5 11.4-.4.4.4 4 52.6 4.1 59.3v3.4l8.1-.6c4.4-.3 8.3-.7 8.5-1 .3-.3-.3-14.2-1.4-30.8-1-16.7-1.7-30.7-1.6-31 .2-.4 5.3-1 11.4-1.4l11-.7v-7.4c0-4.1-.3-7.3-.7-7.3-.5.1-12.5 1-26.8 2z"/><path d="m811 1395.6c-6.7 3.1-8.7 4.8-11.1 9.6-4 7.8-3.3 16.8 1.8 22.8 3.2 3.8 11.4 8.1 21.3 11 12.7 3.8 18 7.3 18 12.1 0 6.5-8 10.3-18.3 8.8-6.7-1-11.4-4.8-12.8-10.4-1.1-4.2-1.4-4.5-4.4-4.5-1.8 0-5.3-.3-7.9-.6l-4.6-.7v4.4c0 5.1 3.6 13.3 7.1 16.6 10.5 9.5 31.8 11.9 45.2 4.9 8.7-4.5 12.2-10.2 12.2-20 0-12.8-4.9-17.4-26.2-24.4-7.2-2.4-14.1-5.3-15.2-6.3-3.2-3-2.7-7.2 1.1-10.4 2.9-2.4 3.8-2.7 9.5-2.3 7.2.4 11.2 2.8 12.8 7.4 1.8 5.2 2.2 5.4 10.1 5.4h7.4v-3.8c0-8.6-7.9-17.6-18.2-20.7-2.9-.8-8.9-1.5-13.7-1.5-7.1 0-9.6.5-14.1 2.6z"/></g></svg>