<svg viewBox="0 0 274.91 43.56" xmlns="http://www.w3.org/2000/svg"><path d="m80.06 29.7-3.43-15.8h9.34l.5 10.57 8.77-10.57h9.26l-15.81 15.8z" fill="#fff"/><path d="m98.29 29.7 5.99-15.8h23.33l-1.47 3.87h-15.06l-.71 1.89h11.61l-1.48 3.9h-11.61l-.79 2.07h15.06l-1.55 4.07z" fill="#fff"/><path d="m122.69 29.7 5.99-15.8h8.27l-4.35 11.46h13.04l-1.65 4.34z" fill="#fff"/><path d="m340.05 490.71a11.16 11.16 0 0 1 6-6.24q4.43-2.12 11.53-2.11t9.95 2.11q2.82 2.1 1.26 6.24a11.19 11.19 0 0 1 -6 6.22q-4.43 2.07-11.54 2.07t-9.94-2.11q-2.82-2.1-1.26-6.22m8.89 0c-.52 1.37-.45 2.43.21 3.15s1.85 1.18 3.65 1.18a8.51 8.51 0 0 0 4.47-1.1 6 6 0 0 0 2.6-3.15c.53-1.39.46-2.45-.2-3.19s-1.87-1.1-3.64-1.1a8.57 8.57 0 0 0 -4.48 1.1 6.12 6.12 0 0 0 -2.61 3.19" fill="#fff" transform="translate(-193.03 -468.91)"/><path d="m173.82 29.7 6-15.8h21.31l-1.47 3.88h-13.04l-.81 2.15h10.65l-1.48 3.88h-10.65l-2.23 5.89z" fill="#fff"/><path d="m196.22 29.7 6-15.8h8.27l-4.35 11.46h13.04l-1.65 4.34z" fill="#fff"/><path d="m218.69 29.7 6-15.8h23.25l-1.39 3.87h-15.06l-.72 1.89h11.62l-1.48 3.9h-11.62l-.78 2.07h15.05l-1.54 4.07z" fill="#fff"/><path d="m241.6 29.7 12.67-8.33-5.31-7.47h9.98l1.63 3.42 4.46-3.42h9.88l-11.11 7.47 6.18 8.33h-10.35l-2.2-4.24-5.5 4.24z" fill="#fff"/><path d="m143.31 34.46h63.29v1.96h-63.29z" fill="#fff"/><path d="m206.61 34.46h63.29v1.96h-63.29z" fill="#e30613"/><path d="m80.02 34.46h63.29v1.96h-63.29z" fill="#009640"/><g fill="#fff"><path d="m51.72 26.23-.29.47-9.78-12.23v-.84z"/><path d="m256.79 468.91-11.38 14.22a.75.75 0 0 1 -1.15 0l-9.59-12v-2.23h.09l10.08 12.59 10.07-12.59z" transform="translate(-193.03 -468.91)"/><path d="m49.51 29.81-.18.28-7.68-9.6v-.5z"/><path d="m251.48 468.91-5.68 7.09a1.24 1.24 0 0 1 -1.93 0l-5.68-7.11h3.15l3.5 4.37 3.49-4.37z" transform="translate(-193.03 -468.91)"/><path d="m259.32 470.37a1.94 1.94 0 0 1 -.22 1.56l-.3.48-13.63 17a.39.39 0 0 1 -.33.16.43.43 0 0 1 -.35-.16l-9.82-12.28v-1.39l10.17 12.7z" transform="translate(-193.03 -468.91)"/><path d="m14.65 26.23.29.47 9.79-12.23v-.84z"/><path d="m195.64 468.91 11.36 14.22a.76.76 0 0 0 .58.27.74.74 0 0 0 .57-.27l9.59-12v-2.23h-.09l-10.06 12.6-10.08-12.59z" transform="translate(-193.03 -468.91)"/><path d="m16.86 29.81.18.28 7.69-9.6v-.5z"/><path d="m200.94 468.91 5.69 7.11a1.22 1.22 0 0 0 1 .46 1.25 1.25 0 0 0 1-.46l5.69-7.11h-3.16l-3.49 4.37-3.5-4.37z" transform="translate(-193.03 -468.91)"/><path d="m193.1 470.37a1.94 1.94 0 0 0 .22 1.56l.3.48 13.63 17a.4.4 0 0 0 .34.16.43.43 0 0 0 .34-.16l9.82-12.28v-1.39l-10.16 12.7z" transform="translate(-193.03 -468.91)"/><path d="m226.21 468.91h-1.29s.14 37.29 1.29 43.56c1.15-6.27 1.29-43.56 1.29-43.56z" transform="translate(-193.03 -468.91)"/><path d="m231.32 468.91h-1.32s.14 30.72 1.29 35.89c1.15-5.17 1.29-35.89 1.29-35.89z" transform="translate(-193.03 -468.91)"/><path d="m221.1 468.91h-1.29s.14 30.72 1.29 35.89c1.15-5.17 1.29-35.89 1.29-35.89z" transform="translate(-193.03 -468.91)"/></g></svg>