<svg enable-background="new 0 0 544.9 97.2" viewBox="0 0 544.9 97.2" xmlns="http://www.w3.org/2000/svg"><path d="m296 45.9c1.2-.1 2.2.8 2.3 2s-.8 2.2-2 2.3c-.1 0-.2 0-.3 0h-22c.1.5.4 1 .6 1.4.9 1.3 2.4 2 4 1.9h24.4c1.2-.1 2.2.8 2.3 2s-.8 2.2-2 2.3c-.1 0-.2 0-.3 0h-25.8c-1.1 0-2.2-.3-3.2-.9-.9-.6-1.8-1.4-2.4-2.3-.1-.2-.3-.5-.4-.7-.1.2-.3.4-.4.6-.6.9-1.5 1.7-2.4 2.3-1 .6-2.1 1-3.2 1h-26.3c-1.2 0-2.1-.9-2.1-2.1v-7.6c-.1-1.2.8-2.2 2-2.3s2.2.8 2.3 2v.3 5.4h22.8c.9 0 1.7-.1 2.5-.5.6-.3 1.1-.8 1.5-1.4.4-.5.6-1.1.8-1.7.1-.6.2-1.2.2-1.8s-.1-1.2-.2-1.7c-.1-.6-.4-1.2-.8-1.8s-.9-1-1.5-1.3c-.8-.4-1.6-.6-2.5-.6h-24.9c-1.2.1-2.2-.8-2.3-2s.8-2.2 2-2.3h.3 25.8c1.2 0 2.4.3 3.4.9s1.9 1.4 2.6 2.3c.2.2.4.5.5.8.2-.3.3-.5.5-.8.7-.9 1.6-1.7 2.6-2.3s2.2-.9 3.4-.9h25.2c1.2-.1 2.2.8 2.3 2s-.8 2.2-2 2.3c-.1 0-.2 0-.3 0h-24.4c-.9 0-1.8.2-2.5.6-.6.3-1.1.8-1.5 1.3-.3.4-.4.9-.6 1.4zm-24.6-17.4c-24.4 0-44.1 8.4-44.1 18.8s19.8 18.9 44.1 18.9 44.1-8.4 44.1-18.8-19.8-18.9-44.1-18.9" fill="#ee7d00"/><g fill="#fff"><path d="m374 30c.7.7 1 1.6 1 2.6 0 .8-.2 1.6-.7 2.2l-.1.1-20.5 27.7c-1 1.3-2.3 2.4-3.8 3.1-1.5.8-3.2 1.2-4.8 1.1-3.2 0-6.3-1.4-8.3-4l-20.6-27.6c-.3-.4-.6-.8-.8-1.2-.2-.5-.3-1-.3-1.5 0-2 1.6-3.7 3.7-3.7 1.2 0 2.3.5 2.9 1.5l19.8 26.4c.4.5.9 1 1.5 1.6.6.5 1.3.8 2.1.9.8 0 1.5-.3 2-.9.5-.5 1-1 1.5-1.6l20-26.5c1.2-1.6 3.5-1.9 5.1-.6.1.2.2.3.3.4"/><path d="m383.5 57.8c.1 1.6-1.1 3-2.7 3.1s-3-1.1-3.1-2.7c0-.1 0-.2 0-.3v-20.7c-.1-1.6 1.1-3 2.7-3.1s3 1.1 3.1 2.7v.3z"/><path d="m395.6 60.7c-1.1 0-2.2-.2-3.2-.6s-1.9-1-2.7-1.8c-.7-.7-1.3-1.6-1.7-2.5-.4-1-.7-2.1-.7-3.1v-15.5c0-1.6 1.3-2.9 2.9-2.9.8 0 1.5.3 2 .9.6.5.9 1.3.9 2.1v15.4c0 .6.2 1.2.7 1.6.4.4 1 .7 1.6.7h36.3c1.6-.1 3 1.1 3.1 2.7s-1.1 3-2.7 3.1c-.1 0-.2 0-.3 0z"/><path d="m446.7 60.7c-1.1 0-2.2-.2-3.2-.6s-1.9-1-2.7-1.8c-.7-.7-1.3-1.6-1.8-2.5-.4-1-.7-2.1-.7-3.1v-15.5c0-1.6 1.3-2.9 2.9-2.9.8 0 1.5.3 2 .9.6.5.9 1.3.9 2.1v15.4c0 .6.2 1.2.7 1.6.4.4 1 .7 1.6.7h36.3c1.6-.1 3 1.1 3.1 2.7s-1.1 3-2.7 3.1c-.1 0-.2 0-.3 0z"/><path d="m502 40.1c-1.2 0-2.4.2-3.5.8-.8.4-1.5 1.1-2.1 1.8-.4.6-.7 1.2-.9 1.9h30.2c1.6-.1 3 1.1 3.1 2.7s-1.1 3-2.7 3.1c-.1 0-.2 0-.3 0h-30.2c.2.7.5 1.3.9 1.9.6.8 1.3 1.4 2.1 1.9 1.1.5 2.3.8 3.5.7h33.4c1.6 0 2.9 1.3 2.9 2.9s-1.3 2.9-2.9 2.9h-35.5c-1.6 0-3.1-.4-4.4-1.2s-2.4-1.9-3.3-3.1c-1.8-2.6-2.8-5.7-2.8-8.9 0-1.6.2-3.1.7-4.6s1.3-3 2.2-4.2c1-1.3 2.2-2.4 3.6-3.2s3-1.2 4.7-1.2h34.7c1.6 0 2.9 1.3 2.9 2.9 0 1.6-1.3 2.9-2.9 2.9z"/><path d="m68.1 30c.7.7 1.1 1.6 1.1 2.6 0 .8-.2 1.6-.8 2.2l-.1.1-20.6 27.8c-1 1.3-2.3 2.4-3.8 3.1-1.5.8-3.2 1.2-4.8 1.1-1.6 0-3.2-.4-4.7-1.1-1.4-.7-2.6-1.7-3.6-3l-20.6-27.5c-.3-.4-.6-.8-.8-1.2-.2-.5-.3-1-.3-1.4 0-2 1.6-3.7 3.7-3.7 1.2 0 2.3.5 2.9 1.5l19.8 26.4c.4.5.9 1 1.5 1.6.6.5 1.3.8 2.1.9.8 0 1.5-.3 2-.9.6-.5 1.1-1 1.5-1.6l20-26.5c1.3-1.6 3.6-1.8 5.1-.6.2 0 .3.1.4.2"/><path d="m80.8 40.1c-1.2 0-2.4.2-3.4.8-.8.4-1.5 1.1-2.1 1.8-.4.6-.7 1.2-.9 1.9h30.2c1.6-.1 3 1.1 3.1 2.7s-1.1 3-2.7 3.1c-.1 0-.2 0-.3 0h-30.3c.2.7.5 1.3.9 1.9.6.8 1.3 1.4 2.1 1.9 1.1.5 2.3.8 3.4.7h33.4c1.6 0 2.9 1.3 2.9 2.9s-1.3 2.9-2.9 2.9h-35.4c-1.6 0-3.1-.4-4.4-1.2s-2.4-1.9-3.3-3.1c-1.8-2.6-2.7-5.7-2.8-8.9 0-1.6.2-3.1.7-4.6s1.3-3 2.2-4.2c1-1.3 2.1-2.3 3.5-3.1s3-1.2 4.7-1.2h34.7c1.6 0 2.9 1.3 2.9 2.9 0 1.6-1.3 2.9-2.9 2.9z"/><path d="m129.1 60.7c-1.1 0-2.2-.2-3.2-.6s-1.9-1-2.7-1.8c-.7-.7-1.3-1.6-1.8-2.5-.5-1-.7-2.1-.7-3.1v-15.5c0-1.6 1.3-2.9 2.9-2.9.8 0 1.5.3 2 .9.6.5.9 1.3.9 2.1v15.4c0 .6.2 1.2.7 1.6.4.4 1 .7 1.6.7h36.3c1.6 0 2.9 1.3 2.9 2.9s-1.3 2.9-2.9 2.9z"/><path d="m208.8 54.9c1.2 0 2.3-.2 3.4-.7.8-.5 1.5-1.1 2.1-1.9.5-.7.8-1.5 1-2.4.2-.8.3-1.6.3-2.4s-.1-1.6-.3-2.4c-.1-.9-.5-1.7-1-2.4-.5-.8-1.2-1.4-2.1-1.8-1-.6-2.2-.8-3.4-.8h-24.5c-1.2-.1-2.4.2-3.4.8-.8.5-1.5 1.1-2.1 1.8-.5.7-.8 1.6-1 2.4s-.2 1.6-.3 2.4c0 .8.1 1.6.3 2.4.4 1.8 1.5 3.3 3.1 4.2 1.1.5 2.3.8 3.4.7h24.5zm12.4-7.4c0 1.6-.3 3.2-.8 4.7s-1.2 3-2.2 4.2-2.2 2.3-3.5 3.1c-1.4.8-3 1.2-4.7 1.2h-27.6c-1.6 0-3.1-.5-4.4-1.3s-2.4-1.9-3.3-3.2c-1.8-2.6-2.8-5.6-2.8-8.7 0-1.6.3-3.1.7-4.6.5-1.5 1.3-3 2.2-4.2.9-1.3 2.1-2.3 3.5-3.1s3-1.2 4.6-1.2h27.6c1.6.1 3.1.5 4.4 1.4 1.3.8 2.4 1.9 3.3 3.1.9 1.3 1.7 2.7 2.1 4.2.6 1.3.9 2.9.9 4.4"/></g></svg>