<svg enable-background="new 0 0 524.7 71" viewBox="0 0 524.7 71" xmlns="http://www.w3.org/2000/svg"><g fill="#fff"><path d="m157.3 55.5h-83.5l98.8-41.6c1.8-.8 3.3-2.2 4.1-4.1l4.2-9.8h-143.3l-5.4 12.6h75.1l-99.1 41.7c-1.9.8-3.3 2.2-4.1 4.1l-4.1 9.7h152.1z"/><path d="m365.9 31.5 11.7-27.4c.8-1.9-.6-4-2.7-4h-130.2l-29.1 68.1h37.8l23.8-55.5h70.4l-83.5 35.2h66c1.7 0 3.3-.3 4.8-1l26.7-11.3c2-.8 3.5-2.3 4.3-4.1z"/><path d="m512.8 31.5 11.7-27.4c.8-1.9-.6-4-2.7-4h-130.2l-29.1 68.1h37.8l23.8-55.5h70.4l-83.5 35.2h66c1.7 0 3.3-.3 4.8-1l26.7-11.3c2-.8 3.5-2.3 4.3-4.1z"/><path d="m202.6 68.1 29.1-68h-37.9l-29 68z"/><path d="m419.2 67.3c0 2.1-1.6 3.7-3.8 3.7-2.1 0-3.8-1.6-3.8-3.7 0-2 1.7-3.7 3.8-3.7s3.8 1.7 3.8 3.7zm-6.7 0c0 1.6 1.2 2.9 2.9 2.9 1.6 0 2.8-1.3 2.8-2.9s-1.2-3-2.8-3c-1.6.1-2.9 1.4-2.9 3zm2.3 1.9h-.9v-3.7c.3-.1.8-.1 1.4-.1.7 0 1 .1 1.3.3.2.2.4.5.4.8 0 .4-.3.7-.8.9.4.1.6.4.7.9.1.6.2.8.3.9h-.9c-.1-.1-.2-.5-.3-.9s-.3-.6-.8-.6h-.4zm0-2.1h.4c.5 0 .9-.2.9-.5s-.2-.6-.8-.6c-.2 0-.4 0-.5 0z"/></g></svg>