<?xml version="1.0" encoding="utf-8"?>
<!-- Generator: Adobe Illustrator 25.0.1, SVG Export Plug-In . SVG Version: 6.00 Build 0)  -->
<svg version="1.1" id="Calque_1" xmlns="http://www.w3.org/2000/svg" xmlns:xlink="http://www.w3.org/1999/xlink" x="0px" y="0px"
	 viewBox="0 0 589.6 254.4" style="enable-background:new 0 0 589.6 254.4;" xml:space="preserve">
<style type="text/css">
	.st0{fill:#FFFFFF;}
	.st1{fill:none;stroke:#FFFFFF;stroke-width:9.5765;stroke-miterlimit:10;}
	.st2{fill:none;stroke:#000000;stroke-width:1.3703;stroke-miterlimit:10;}
	.st3{fill:#FFFFFF;stroke:#FFFFFF;stroke-width:2.1237;stroke-miterlimit:10;}
	.st4{fill:none;stroke:#FFFFFF;stroke-width:10.0148;stroke-miterlimit:10;}
	.st5{fill:none;stroke:#FFFFFF;stroke-width:9.329;stroke-miterlimit:10;}
	.st6{fill:#FFFFFF;stroke:#FFFFFF;stroke-width:1.5941;stroke-miterlimit:10;}
</style>
<g>
	<defs>
		<rect id="SVGID_1_" x="157.3" y="4.8" width="277" height="165.5"/>
	</defs>
	<clipPath id="SVGID_2_">
		<use xlink:href="#SVGID_1_"  style="overflow:visible;"/>
	</clipPath>
	<use xlink:href="#SVGID_1_"  style="overflow:visible;fill:none;stroke:#FFFFFF;stroke-miterlimit:10;"/>
</g>
<g>
	<path class="st0" d="M7.1,211.6c4.3-4.4,10.4-7.3,17.1-7.3c11.3,0,20.2,7.1,23,18.2h-7.1c-2.6-7.4-8.7-11.1-15.9-11.1
		c-4.7,0-9,2-12.1,5.3c-3.1,3.2-5.1,7.6-5.1,12.7c0,4.9,2,9.3,5.1,12.6c3.1,3.2,7.4,5.3,12.1,5.3c7.5,0,13.8-4.3,16.4-11.8h7
		c-2.8,11.2-11.8,18.8-23.3,18.8c-6.7,0-12.8-2.8-17.1-7.3C2.8,242.3,0,236.1,0,229.3C0,222.3,2.8,216.1,7.1,211.6z"/>
	<path class="st0" d="M53.2,204.5l13.5,21.7l13.5-21.7h8.5l-18.3,29.2v20.1h-7.2v-20.1l-18.3-29.2H53.2z"/>
	<path class="st0" d="M92,211.6c4.3-4.4,10.4-7.3,17.1-7.3c11.3,0,20.2,7.1,23,18.2H125c-2.6-7.4-8.7-11.1-15.9-11.1
		c-4.7,0-9,2-12.1,5.3c-3.1,3.2-5.1,7.6-5.1,12.7c0,4.9,2,9.3,5.1,12.6c3.1,3.2,7.4,5.3,12.1,5.3c7.5,0,13.8-4.3,16.4-11.8h7
		c-2.8,11.2-11.8,18.8-23.3,18.8c-6.7,0-12.8-2.8-17.1-7.3c-4.2-4.5-7.1-10.7-7.1-17.6C84.9,222.3,87.7,216.1,92,211.6z"/>
	<path class="st0" d="M144.2,246.7h23.2v7.1h-30.3v-49.3h7.1V246.7z"/>
	<path class="st0" d="M178.8,246.7h22.9v7.1h-30.1v-49.3h30v7.1h-22.9v13.9h22.4v7.2h-22.4V246.7z"/>
	<path class="st0" d="M234.6,217.2c-1-4.4-5.8-6.3-10.1-6.3c-3.3,0.1-7,1.2-9,3.7c-1,1.3-1.3,2.9-1.2,4.6c0.4,5.1,5.9,5.7,11.2,6.2
		c6.8,0.8,15.2,2.6,17.1,10.5c0.2,1.1,0.4,2.3,0.4,3.2c0,9.5-9.5,15-18.3,15c-7.6,0-16.9-4.5-17.8-13.3l-0.1-1.3l7.2-0.1l0.1,1.1
		v-0.3c0.5,4.6,6.1,7,10.6,7c5.3,0,11.1-3,11.1-8c0-0.5-0.1-1.1-0.2-1.7c-0.8-3.7-5.9-4.4-10.9-4.9c-7.7-0.8-16.7-2.5-17.5-12.8v0.1
		c-0.3-3.3,0.6-6.6,2.7-9.4c3.3-4.3,9.2-6.6,15-6.6c7.6,0,15.5,4,16.8,13L234.6,217.2z"/>
	<path class="st0" d="M278.5,246.7h23.2v7.1h-30.3v-49.3h7.1V246.7z"/>
	<path class="st0" d="M314.5,246.7h22.9v7.1h-30.1v-49.3h30v7.1h-22.9v13.9h22.4v7.2h-22.4V246.7z"/>
	<path class="st0" d="M349.5,211.6c4.3-4.4,10.4-7.3,17.1-7.3c11.3,0,20.2,7.1,23,18.2h-7.1c-2.6-7.4-8.7-11.1-15.9-11.1
		c-4.7,0-9,2-12.1,5.3c-3.1,3.2-5.1,7.6-5.1,12.7c0,4.9,2,9.3,5.1,12.6c3.1,3.2,7.4,5.3,12.1,5.3c7.5,0,13.8-4.3,16.4-11.8h7
		c-2.8,11.2-11.8,18.8-23.3,18.8c-6.7,0-12.8-2.8-17.1-7.3c-4.2-4.5-7.1-10.7-7.1-17.6C342.5,222.3,345.3,216.1,349.5,211.6z"/>
	<path class="st0" d="M404.6,228.8h8.3c6,0,9-4.3,9-8.6c0-4.2-3-8.5-9-8.5H402v42.2h-7.1v-49.4h18c10.7,0,16.1,7.9,16.1,15.7
		c0,7-4.3,13.6-12.8,15.1l15.6,18.5h-9.2l-18-21.7V228.8z"/>
	<path class="st0" d="M463,211.6h-9.2v35.1h9.2v7.1h-25.5v-7.1h9.2v-35.1h-9.2v-7.1H463V211.6z"/>
	<path class="st0" d="M516.6,253.8h-7.8l-4.7-4.2c-11,7.3-25.6,5.9-33.4-2.7c-4.3-4.7-7.3-10.9-7.3-17.8c0-7,2.9-13.3,7.3-17.8
		c4.5-4.6,10.9-7.5,17.8-7.5c7,0,13.3,2.9,17.8,7.5c4.4,4.6,7.3,10.9,7.3,17.8c0,5.9-2,11.1-5.4,15.4l8.2,7.7V253.8z M501.3,216.4
		c-3.2-3.3-7.8-5.4-12.7-5.4c-4.9,0-9.4,2-12.7,5.4c-3.2,3.2-5.3,7.8-5.3,12.8c0,5,2.1,9.6,5.3,12.8c6.1,6.1,15.2,7.3,22.7,2.8
		l-13.7-12.2h9.9l8.4,7.6c2.2-3,3.4-7.1,3.4-11C506.6,224.1,504.4,219.6,501.3,216.4z"/>
	<path class="st0" d="M518.4,239v-34.5h7.2v34.6c0,5.4,5.9,8.1,11.1,8.1c5.1,0,11-2.8,11-8.2v-34.5h7.2v34.6
		c0,10-9.7,15.2-18.2,15.2C528,254.3,518.4,249.1,518.4,239z"/>
	<path class="st0" d="M566.7,246.7h22.9v7.1h-30.1v-49.3h30v7.1h-22.9v13.9h22.4v7.2h-22.4V246.7z"/>
</g>
<rect x="157.3" y="4.8" class="st1" width="277" height="165.5"/>
<path class="st2" d="M237.6,15.6"/>
<path class="st2" d="M230.8,11.3"/>
<polygon class="st0" points="264.8,63.7 204.2,129.5 196.6,122.5 258,54.2 "/>
<path class="st3" d="M343.6,30.3c-0.1-1.2-4.4-2.6-4.3-3.6c1.9-0.8,10.1-4.5,11.3-4.7c3.5-0.5,27.4-0.4,31.1,0
	c1.8,0.2,6.8-0.5,7.8-1.7c3.7-4.6,9.1-1.4,9.1,1.7c0,1.1-2.3,1.7-2.3,5.9c0,0.9-1,5.3-1.3,6.6c-1.3,6.3-4.2,6.4-1.7,12.1
	c-1.5-1.4-3.3-2.7-3.9-4.4c-0.6-1.7-1.8-5.2-1.7-6.4c0.1-1.1,0.5-1.9,1.7-2.6c1.1-0.7,2.5-3.9,2.6-4.8c-1.5,0.1-6.9,1-7.5,1.5
	c1,14.4-15,20.3-27.6,19.5c-0.3-1.9-0.1-4.9-0.1-6.2c27.3,4.7,15.9-26.8-1.9-13.5C352.7,31.5,344.2,35.8,343.6,30.3z"/>
<line class="st4" x1="244.6" y1="29.7" x2="348.4" y2="29.7"/>
<line class="st5" x1="209.1" y1="119.1" x2="280.3" y2="129.8"/>
<path class="st0" d="M223.5,117.5c0,8.6-7,15.5-15.5,15.5c-8.6,0-15.5-7-15.5-15.5c0-8.6,7-15.5,15.5-15.5
	C216.5,102,223.5,109,223.5,117.5z"/>
<path class="st6" d="M224.5,10c0.7,0.2,14.2,5,14.8,5.9l9.4-1.2c1.8-0.2,4.1-0.9,5.1-1.4c0.9-0.5,5.4-3.3,5.9-3.5
	c0.5-0.2,1.4-0.7,2.5-0.7c1.1,0.1,7.8,0.1,9.2,0c1.4-0.1,0.3-3-1-3.4c-1.3-0.4-17.7-0.3-19.7,0c-2,0.3-22,0.3-23.7,0.3
	C223.7,6,220.7,8.8,224.5,10z"/>
<polygon class="st0" points="250.6,15.2 286.9,132.1 277.1,135.2 238.9,16.4 "/>
<polygon class="st0" points="359.2,51.2 276.3,141.3 268.7,134.4 352.3,41.7 "/>
<path class="st0" d="M295.9,129.8c0,8.6-7,15.5-15.5,15.5c-8.6,0-15.5-7-15.5-15.5c0-8.6,7-15.5,15.5-15.5
	C288.9,114.3,295.9,121.2,295.9,129.8z"/>
<path class="st0" d="M399.1,117.3c0,8.6-7,15.5-15.5,15.5c-8.6,0-15.5-7-15.5-15.5c0-8.6,7-15.5,15.5-15.5
	C392.1,101.8,399.1,108.7,399.1,117.3z"/>
<path class="st1" d="M256,117.5c0,26.6-21.5,48.1-48.1,48.1s-48.1-21.5-48.1-48.1c0-26.6,21.5-48.1,48.1-48.1S256,91,256,117.5z"/>
<path class="st1" d="M431.6,117.3c0,26.6-21.5,48.1-48.1,48.1c-26.6,0-48.1-21.5-48.1-48.1c0-26.6,21.5-48.1,48.1-48.1
	C410.1,69.2,431.6,90.8,431.6,117.3z"/>
<path class="st0" d="M342.5,31.4c0.4,0.6,35.6,84.2,36,84.8c0.5,0.6,3.6-2.2,4.5-2.8c-1.2-2.4-22.3-62.3-22.8-63.7
	c-0.5-1.5-6.4-17.5-6.9-18.3C352.8,30.5,343.9,30.8,342.5,31.4"/>
</svg>
