<?xml version="1.0" encoding="utf-8"?>
<!-- Generator: Adobe Illustrator 25.0.1, SVG Export Plug-In . SVG Version: 6.00 Build 0)  -->
<svg version="1.1" id="Ebene_1" xmlns="http://www.w3.org/2000/svg" xmlns:xlink="http://www.w3.org/1999/xlink" x="0px" y="0px"
	 viewBox="0 0 200 27.4" style="enable-background:new 0 0 200 27.4;" xml:space="preserve">
<style type="text/css">
	.st0{fill:#FFFFFF;}
	.st1{fill-rule:evenodd;clip-rule:evenodd;fill:#91C300;}
</style>
<g>
	<path class="st0" d="M129,7.5c-0.3-0.6-1.1-0.7-3.3-0.7h-19.6l-7.3,13.7l20.4,0c3,0,4.5-1.9,5.3-3.6c0,0,4.1-7.8,4.1-7.9
		c0.1-0.3,0.3-0.7,0.3-0.9C129.1,8,129.1,7.8,129,7.5z M117.8,16.7c-0.2,0.2-0.9,0.2-0.9,0.2h-9.7l3.4-6.3h8.8
		c1.2,0,1.4,0.1,1.5,0.3c0,0.1,0,0.2-0.1,0.6c0,0-1.7,3.2-2.5,4.7C118.1,16.5,118,16.6,117.8,16.7z"/>
	<path class="st0" d="M64.1,10.6l2-3.8l-20.9,0c-3.7,0-4.2,1-4.7,1.9c-1.8,3.3-5.2,9.8-5.2,9.9c-0.1,0.2-0.2,0.6-0.2,0.8
		c0,0.1,0.1,0.3,0.1,0.4c0.2,0.3,0.8,0.7,2.5,0.7l21.1,0l1.9-3.6l-18.1,0l0.7-1.3l14.2,0l2-3.8l-14.2,0l0.6-1.2L64.1,10.6L64.1,10.6
		z"/>
	<polygon class="st0" points="103.6,6.9 96.1,6.9 88.8,20.6 96.3,20.6 	"/>
	<path class="st0" d="M155.9,7.5c-0.3-0.4-0.9-0.7-2.6-0.7h-18.4c-2.8,0-3.3,0.9-3.8,1.8l-6.3,11.9h7l2.6-4.9l11.3,0l-2.6,4.9h6.7
		l6.3-11.9c0,0,0.1-0.3,0.1-0.7C156,7.9,156,7.7,155.9,7.5z M136.7,11.1c0,0,0.2-0.5,0.9-0.5h9.7c0.6,0,0.6,0.3,0.6,0.5
		c0,0.1-0.8,1.5-0.8,1.5l-11.3,0L136.7,11.1z"/>
	<path class="st0" d="M92.5,7.5c-0.2-0.3-0.8-0.6-2.5-0.6l-22,0l-7.3,13.7l6.7,0l5.3-9.9l11.6,0c0,0,0.5,0,0.3,0.4
		c-0.1,0.2-0.2,0.5-0.3,0.6c-0.1,0.2-0.1,0.3-0.6,0.3c-0.4,0-8.1,0-8.1,0l-2.1,3.9l6.4,4.8h8.7l-6.3-4.9l3.2,0
		c2.5-0.1,3.3-0.5,4-1.8c0,0,2.8-5.4,2.8-5.4c0.1-0.2,0.1-0.3,0.1-0.4C92.7,7.8,92.7,7.7,92.5,7.5z"/>
	<path class="st0" d="M25.5,6.9l-6.4,6.5l-1.9-6.5c0,0-6.8,0-8.3,0C7.5,6.9,7,7.4,6.5,8.3C6.5,8.4,0,20.6,0,20.6l6.9,0l5.3-10h1.4
		l2.2,7.1h4.7l7.8-7.1h1.9l-5.3,9.9l6.9,0l6.3-11.9c0.6-1.5,0.4-1.8-1.5-1.8L25.5,6.9z"/>
</g>
<g>
	<path class="st1" d="M192.8,27.4c1.2,0,1.3-0.6,0.4-1.3l-9.1-7.4c-0.9-0.7-2.1-0.7-3.1,0.1l-2.4,1.5c-1.2,0.8-2.6,0.9-3.5,0.4
		c-0.9-0.5-2.4-0.5-3.4,0.1l-9.5,5.5c-1,0.6-0.9,1.1,0.3,1.1H192.8z"/>
	<path class="st1" d="M199.4,22c1.7,1.7-0.8,2.1-2.1,1.1l-13.6-10.5c-1-0.7-2.3-0.5-3.3,0.2l-2.6,1.7c-1,0.7-2.4,0.9-3.4,0.3
		l-0.1-0.1c-1-0.6-2.6-0.6-3.6,0l-13.1,8.6c-1.1,0.7-2.9,0.1-1.5-1.4l20.2-21.5c0.7-0.7,2.4-0.7,3.1,0L199.4,22z"/>
</g>
</svg>
